<svg xmlns="http://www.w3.org/2000/svg" xmlns:xlink="http://www.w3.org/1999/xlink" width="32" height="30.958" viewBox="0 0 32 30.958">
  <defs>
    <path id="path-1" fill-rule="evenodd" d="M0 0h32v30.95844504H0V0z"/>
    <mask id="mask-2" maskContentUnits="userSpaceOnUse" maskUnits="userSpaceOnUse">
      <rect width="32" height="30.958" x="0" y="0" fill="black"/>
      <use fill="white" xlink:href="#path-1"/>
    </mask>
  </defs>
  <g>
    <use fill="none" xlink:href="#path-1"/>
    <g mask="url(#mask-2)">
      <path fill="rgb(253,217,82)" fill-rule="evenodd" d="M3.75-.00002847h24.5c2.06774902 0 3.75 1.62750244 3.75 3.62792969V27.3304769c0 2.00042725-1.68225098 3.62792969-3.75 3.62792969H3.75c-2.06774902 0-3.75-1.62750244-3.75-3.6279297V3.62790123c0-2.00042725 1.68225098-3.6279297 3.75-3.6279297zm24.5 28.53985595c.68925476 0 1.25-.54260253 1.25-1.20935058V3.62790122c0-.66680909-.56074524-1.20928956-1.25-1.20928956H3.75c-.68924713 0-1.25.54248047-1.25 1.20928956V27.3304769c0 .66674805.56075287 1.20935058 1.25 1.20935058h13.5013733v-9.85595703H13.5v-3.74884033h3.7513733v-2.58953857c0-3.0791626 2.56594085-5.57336426 5.7486267-5.57336426h2.5625v3.74890137H23c-1.06093597 0-1.875.78753662-1.875 1.81396484v2.60003662h4.5l-.63812256 3.74884033H21.125v9.85595703h7.125z"/>
    </g>
  </g>
</svg>
