<svg xmlns="http://www.w3.org/2000/svg" xmlns:xlink="http://www.w3.org/1999/xlink" width="32" height="30.958" viewBox="0 0 32 30.958">
  <defs>
    <path id="path-1" fill-rule="evenodd" d="M0 0h32v30.9584269H0V0z"/>
    <mask id="mask-2" maskContentUnits="userSpaceOnUse" maskUnits="userSpaceOnUse">
      <rect width="32" height="30.958" x="0" y="0" fill="black"/>
      <use fill="white" xlink:href="#path-1"/>
    </mask>
  </defs>
  <g>
    <g>
      <use fill="none" xlink:href="#path-1"/>
      <g mask="url(#mask-2)">
        <path fill="rgb(253,217,82)" fill-rule="evenodd" d="M10-.0000075h12c5.52200317 0 10 4.33221435 10 9.6744995v11.60943604c0 5.34228516-4.47799683 9.67449952-10 9.67449952H10c-5.52200317 0-10-4.33221436-10-9.67449952V9.67449201C0 4.33220685 4.47799683-.0000075 10-.0000075zm12 28.0560913c3.86000061 0 7-3.03778076 7-6.77215576V9.67449201c0-3.734375-3.13999939-6.77215576-7-6.77215576H10c-3.86000061 0-7 3.03778076-7 6.77215576v11.60943603c0 3.734375 3.13999939 6.77215577 7 6.77215577h12z"/>
      </g>
    </g>
    <path fill="rgb(253,217,82)" fill-rule="evenodd" d="M8 15.4791795c0-4.1362915 3.58200073-7.4899292 8-7.4899292s8 3.3536377 8 7.4899292c0 4.13629151-3.58200073 7.48999024-8 7.48999024s-8-3.35369873-8-7.48999023zm3 0c0 2.58026124 2.2440033 4.68121339 5 4.68121339s5-2.10095215 5-4.68121338c0-2.58215332-2.2440033-4.68121338-5-4.68121338s-5 2.09906006-5 4.68121338z"/>
    <path fill="rgb(253,217,82)" fill-rule="evenodd" d="M24.49995603 5.99193896C25.3283792 5.99193896 26 6.6625913 26 7.48992824c0 .82733695-.67162079 1.49798928-1.50004397 1.49798928C23.67162079 8.98791752 23 8.31726519 23 7.48992824c0-.82733695.67162079-1.49798928 1.49995603-1.49798928"/>
  </g>
</svg>
