<svg xmlns="http://www.w3.org/2000/svg" xmlns:xlink="http://www.w3.org/1999/xlink" width="32" height="22.969" viewBox="0 0 32 22.969">
  <defs>
    <path id="path-1" fill-rule="evenodd" d="M0 0h32v22.9691689H0V0z"/>
    <mask id="mask-2" maskContentUnits="userSpaceOnUse" maskUnits="userSpaceOnUse">
      <rect width="32" height="22.969" x="0" y="0" fill="black"/>
      <use fill="white" xlink:href="#path-1"/>
    </mask>
  </defs>
  <g>
    <use fill="none" xlink:href="#path-1"/>
    <g mask="url(#mask-2)">
      <path fill="rgb(253,217,82)" fill-rule="evenodd" d="M11.66923523 22.83763994c1.57317352.07373047 3.14950561.09008789 4.72447967.13153076 0-.02050781.00045014-.04095459.00045014-.0614624.21629333 0 .43258667.00219726.6488266.00445556.47520447.00488282.95013428.00976563 1.42421722-.00897216 1.53437805-.06054688 3.06964874-.11883545 4.6008606-.2290039 1.5848999-.11376954 3.16574096-.28491212 4.74794006-.43560792 1.7834015-.16931152 3.21446228-1.40332031 3.61373902-3.12213135.32798767-1.41558838.4741516-2.85675049.52062988-4.30560302C31.99278259 13.49944414 32 12.18627275 32 10.87395586c0-2.29370117-.05413818-4.58148194-.51161194-6.84417725-.32618713-1.61273193-1.55421448-2.96875-3.15536499-3.24731445C27.25883484.5953914 26.16433716.5193416 25.07660675.41924394 24.05474091.32543291 23.03062439.25170244 22.00650787.1934749 20.7008667.11925615 19.39523315.04003252 18.08824157.01683916c-1.53527068-.02685547-3.0718994-.02227783-4.6071701.01867676C11.9462433.0764705 10.41142273.15245927 8.87976074.2617122c-1.56459808.11199952-3.12604522.26904297-4.6861267.43292237-1.70761872.17932129-2.89595795 1.08831787-3.4774933 2.7178955-.4123535 1.15252686-.50980376 2.37701417-.589653 3.59094239C.0552063 8.09685625.02497863 9.19432939.01415252 10.29039873l-.00214386.21795654c-.02400208 2.43188477-.04801941 4.86486817.31163025 7.2798462.10647583.71374511.19940948 1.4375.52017974 2.0970459.64514924 1.32690429 1.68009186 2.13940429 3.14769745 2.32196044 1.07780457.13427734 2.1601181.23669434 3.2428894.32403564 1.47662354.1192627 2.95504761.23718262 4.43482972.30639649zm.87971497-10.16168213c.00024414-.40258789.00048828-.80523682.00048828-1.20794678l-.00014496-.92114258c-.00024414-1.0211792-.00048065-2.04229736.0019455-3.06311035.00045013-.14111328.01037597-.28631591.04331207-.42285156.11910247-.49615478.5504074-.74377441 1.0390091-.5612793.33655547.12609864.6532669.31225586.9708786.48480225 2.27020263 1.23535156 4.539505 2.47302246 6.80654906 3.71429443.1394043.07647705.27249146.17523194.3861847.2868042.30362701.29858399.31987.68365479-.00496674.9595337-.26708221.2276001-.5846939.4019165-.89463043.5717163-2.32028198 1.26947022-4.64372254 2.53216553-6.96625519 3.79711914-.77101898.42059326-1.37827301.06286621-1.38098144-.8206787-.00252533-.939209-.00196076-1.87817384-.00138855-2.81726075z"/>
    </g>
  </g>
</svg>
