<svg xmlns="http://www.w3.org/2000/svg" xmlns:xlink="http://www.w3.org/1999/xlink" width="32" height="31" viewBox="0 0 32 31">
  <defs>
    <path id="path-1" fill-rule="evenodd" d="M0 0h32v31H0V0z"/>
    <mask id="mask-2" maskContentUnits="userSpaceOnUse" maskUnits="userSpaceOnUse">
      <rect width="32" height="31" x="0" y="0" fill="black"/>
      <use fill="white" xlink:href="#path-1"/>
    </mask>
  </defs>
  <g>
    <use fill="none" xlink:href="#path-1"/>
    <g mask="url(#mask-2)">
      <path fill="rgb(151,187,56)" fill-rule="evenodd" d="M3.75 0h24.5C30.31774902 0 32 1.62988281 32 3.6328125v23.734375C32 29.37011719 30.31774902 31 28.25 31H3.75C1.68225098 31 0 29.37011719 0 27.3671875V3.6328125C0 1.62988281 1.68225098 0 3.75 0zm24.5 28.578125c.68920898 0 1.25-.54345703 1.25-1.2109375V3.6328125c0-.66748047-.56079102-1.2109375-1.25-1.2109375H3.75c-.68920898 0-1.25.54345703-1.25 1.2109375v23.734375c0 .66748047.56079102 1.2109375 1.25 1.2109375h13.50134277v-9.86914063H13.5v-3.75390624h3.75134277v-2.59277344C17.25134277 9.27880859 19.81726074 6.78125 23 6.78125h2.5625v3.75390625H23c-1.06091309 0-1.875.78857422-1.875 1.81640625v2.60351563h4.5l-.6381836 3.75390624H21.125V28.578125h7.125z"/>
    </g>
  </g>
</svg>
