<svg xmlns="http://www.w3.org/2000/svg" xmlns:xlink="http://www.w3.org/1999/xlink" width="21" height="21" viewBox="0 0 21 21">
  <defs>
    <path id="path-1" fill-rule="evenodd" d="M0 0h21v21H0V0z"/>
    <mask id="mask-2" maskContentUnits="userSpaceOnUse" maskUnits="userSpaceOnUse">
      <rect width="21" height="21" x="0" y="0" fill="black"/>
      <use fill="white" xlink:href="#path-1"/>
    </mask>
  </defs>
  <g>
    <use fill="none" xlink:href="#path-1"/>
    <g mask="url(#mask-2)">
      <path fill="rgb(255,255,255)" fill-rule="evenodd" d="M2.4609375 0h16.078125C19.89602661 0 21 1.1040039 21 2.4609375v16.078125C21 19.8959961 19.89602661 21 18.5390625 21H2.4609375C1.10397339 21 0 19.8959961 0 18.5390625V2.4609375C0 1.1040039 1.10397339 0 2.4609375 0zm16.078125 19.359375c.45231628 0 .8203125-.36816406.8203125-.8203125V2.4609375c0-.45214844-.36799622-.8203125-.8203125-.8203125H2.4609375c-.45231628 0-.8203125.36816406-.8203125.8203125v16.078125c0 .45214844.36799622.8203125.8203125.8203125h8.86027527v-6.68554688H8.859375v-2.54296874h2.46183777V8.37451172c0-2.08886719 1.68389892-3.78076172 3.77253723-3.78076172h1.68164063v2.54296875H15.09375c-.69624329 0-1.23046875.53417969-1.23046875 1.23046875v1.76367188h2.953125l-.4187622 2.54296874h-2.5343628V19.359375h4.67578125z"/>
    </g>
  </g>
</svg>
