<svg xmlns="http://www.w3.org/2000/svg" xmlns:xlink="http://www.w3.org/1999/xlink" width="142.388" height="46.608" viewBox="0 0 142.388 46.608">
  <defs>
    <path id="path-14" fill-rule="evenodd" d="M0 46.608h142.388V0H0v46.608z"/>
    <mask id="mask-15" maskContentUnits="userSpaceOnUse" maskUnits="userSpaceOnUse">
      <rect width="142.388" height="46.608" x="0" y="0" fill="black"/>
      <use fill="white" xlink:href="#path-14"/>
    </mask>
  </defs>
  <g>
    <path fill="rgb(254,254,254)" fill-rule="evenodd" d="M41.6391983 7.23174531c0-3.89208984 3.16800309-7.0600586 7.06100464-7.0600586 3.8939972 0 7.06199646 3.16796876 7.06199646 7.0600586v11.6459961c0 3.89501953-3.16799927 7.06201171-7.06199646 7.06201171-1.96900177 0-3.7480011-.81298828-5.03100204-2.11816406-1.29899979.93115235-2.88100052 1.49316406-4.59700012 1.49316406-4.3769989 0-7.93700028-3.56103515-7.93700028-7.93798828 0-4.37597656 3.56000137-7.93701172 7.93700028-7.93701172.90299987 0 1.75699996.18408204 2.56699752.46289063V7.23174531zm12.25300217 11.64550781c0 2.86328125-2.32999802 5.1928711-5.19199753 5.1928711-1.4280014 0-2.72299957-.5805664-3.66200256-1.515625-.22299957-.22314453-.42099762-.46728516-.60099793-.72705078-.19100189-.27294922-.35499954-.5649414-.48900222-.875-.27999878-.63720703-.43999863-1.33691407-.43999863-2.07519532V7.23125703c0-2.8618164 2.32799911-5.1899414 5.19200134-5.1899414 2.86199951 0 5.19199753 2.328125 5.19199753 5.1899414v11.6459961zm-11.32099915 3.43798829c-.99200058.70507812-2.19499969 1.12792968-3.49900054 1.12792968-3.34500123 0-6.0680008-2.72070312-6.0680008-6.06689453 0-3.34472656 2.72299957-6.06689453 6.0680008-6.06689453.92099761 0 1.7840004.22216797 2.56699752.58984375v6.97802734c0 1.2553711.35600281 2.4169922.93200302 3.43798829z"/>
    <path fill="rgb(254,254,254)" fill-rule="evenodd" d="M38.5719 29.5659c-.517 0-.936-.418-.936-.935v-10.503c0-.517.419-.935.936-.935.517 0 .935.418.935.935v10.503c0 .517-.418.935-.935.935"/>
    <path fill="rgb(254,254,254)" fill-rule="evenodd" d="M48.8258 29.3159c-.517 0-.936-.418-.936-.935v-17.756c0-.517.419-.935.936-.935.517 0 .935.418.935.935v17.756c0 .517-.418.935-.935.935"/>
    <path fill="rgb(254,254,254)" fill-rule="evenodd" d="M55.0768 30.5669H1.8108c-.516 0-.934-.418-.934-.935 0-.516.418-.935.934-.935h53.266c.518 0 .936.419.936.935 0 .517-.418.935-.936.935"/>
    <path fill="rgb(254,254,254)" fill-rule="evenodd" d="M51.3268 46.2583c-.235 0-.471-.088-.651-.265-8.505-8.276-27.001-16.201-49.075-15.238-.544-.022-.952-.38-.974-.895-.022-.515.378-.952.894-.975 24.207-1.041 42.311 7.84 50.458 15.768.37.36.378.952.018 1.322-.183.188-.427.283-.67.283"/>
    <path fill="rgb(254,254,254)" fill-rule="evenodd" d="M42.8239 46.5083c-.231 0-.466-.086-.646-.259-5.98-5.733-27.79-13.19-40.458-11.007-.497.088-.993-.255-1.081-.762-.087-.51.254-.993.764-1.081 13.139-2.255 35.832 5.523 42.067 11.499.373.357.385.949.03 1.322-.185.191-.429.288-.676.288"/>
    <path fill="rgb(254,254,254)" fill-rule="evenodd" d="M32.5699 46.5083c-.161 0-.323-.04-.471-.128-6.467-3.77-20.167-8.247-30.37-6.389-.504.08-.995-.242-1.088-.752-.091-.509.245-.995.752-1.087 11.282-2.051 25.397 2.968 31.648 6.614.446.26.597.833.336 1.278-.173.298-.486.464-.807.464"/>
    <path fill="rgb(254,254,254)" fill-rule="evenodd" d="M55.0768 35.0679h-22.507c-.516 0-.934-.418-.934-.936 0-.516.418-.934.934-.934h22.507c.518 0 .936.418.936.934 0 .518-.418.936-.936.936"/>
    <path fill="rgb(254,254,254)" fill-rule="evenodd" d="M55.0807 39.5679h-12.133c-.516 0-.934-.418-.934-.935 0-.516.418-.934.934-.934h12.133c.517 0 .935.418.935.934 0 .517-.418.935-.935.935"/>
    <path fill="rgb(254,254,254)" fill-rule="evenodd" d="M20.3785 30.3784c-.517 0-.935-.418-.935-.935v-16.317c0-.517.418-.935.935-.935.517 0 .935.418.935.935v16.317c0 .517-.418.935-.935.935"/>
    <path fill="rgb(254,254,254)" fill-rule="evenodd" d="M4.8112 30.3784c-.517 0-.935-.418-.935-.935v-16.317c0-.517.418-.935.935-.935.517 0 .936.418.936.935v16.317c0 .517-.419.935-.936.935"/>
    <path fill="rgb(254,254,254)" fill-rule="evenodd" d="M.9352 19.7818c-.157 0-.314-.038-.46-.121-.449-.254-.608-.823-.354-1.275l4.127-7.314c.085-.151.211-.275.363-.359l7.502-4.126c.453-.247 1.018-.084 1.27.368.249.453.084 1.02-.368 1.271l-7.27 3.996-3.996 7.085c-.171.303-.489.475-.814.475"/>
    <path fill="rgb(254,254,254)" fill-rule="evenodd" d="M24.0045 19.7818c-.324 0-.643-.172-.814-.475l-3.995-7.085-7.27-3.996c-.453-.251-.617-.818-.369-1.271.252-.452.816-.615 1.27-.368l7.503 4.126c.152.084.278.208.363.359l4.126 7.314c.254.452.095 1.021-.353 1.275-.147.083-.304.121-.461.121"/>
    <use fill="none" xlink:href="#path-14"/>
    <g mask="url(#mask-15)">
      <path fill="rgb(254,254,254)" fill-rule="evenodd" d="M9.93799973 29.81621797h5.2519989c.5170021 0 .93500137-.41796875.93500137-.9350586v-8.8149414c0-.51708985-.41799927-.9350586-.93500137-.9350586h-5.2519989c-.51600075 0-.93400002.41796875-.93400002.9350586v8.8149414c0 .51708985.41799927.9350586.93400002.9350586zm4.31700134-1.8696289h-3.38100052v-6.94482423h3.38100052v6.94482422z"/>
      <path fill="rgb(254,254,254)" fill-rule="evenodd" d="M11.252 16.127h2.251V12h-2.251v4.127z"/>
      <path fill="rgb(254,254,254)" fill-rule="evenodd" d="M22.7574997 5.99981172c0 2.27294922 1.84999847 4.12304687 4.1230011 4.12304687 2.2749977 0 4.125-1.85009765 4.125-4.12304687 0-2.27490235-1.8500023-4.12402344-4.125-4.12402344-2.27300263 0-4.1230011 1.8491211-4.1230011 4.12402344zm1.86999893 0c0-1.24267578 1.01200103-2.25488281 2.25299835-2.25488281 1.24300003 0 2.25500107 1.01220703 2.25500107 2.2548828 0 1.2421875-1.01200104 2.25390626-2.25500107 2.25390626-1.24099732 0-2.25299835-1.01171875-2.25299835-2.25390625z"/>
      <path fill="rgb(254,254,254)" fill-rule="evenodd" d="M15.8776 1.8697H1.2796c-.516 0-.934-.418-.934-.935 0-.516.418-.934.934-.934h14.598c.518 0 .936.418.936.934 0 .517-.418.935-.936.935"/>
      <path fill="rgb(254,254,254)" fill-rule="evenodd" d="M9.7125 5.8081h-8.433c-.516 0-.934-.418-.934-.935 0-.516.418-.934.934-.934h8.433c.517 0 .935.418.935.934 0 .517-.418.935-.935.935"/>
      <path fill="rgb(254,254,254)" fill-rule="evenodd" d="M67.3336.7329l12.042.089-.109 14.762-2.594-.02.092-12.421-6.854-.051-.093 12.421-2.593-.018.109-14.762z"/>
      <path fill="rgb(254,254,254)" fill-rule="evenodd" d="M88.99130249.89287812L83.16830444.84990937l-.10900116 14.76220704 2.59500122.01855468.03499604-4.74560547 2.93099975.02197266c3.2480011.02392578 5.91799927-1.6850586 5.9430008-4.99609375.02200317-3.01513672-2.13499451-4.9921875-5.5719986-5.0180664zm2.93499756 5.0209961c-.01200104 1.57910156-1.2420044 2.66796875-3.20300293 2.65283203l-3.01799774-.02197266.04000091-5.31396484 3.0169983.02294922c1.94000244.01416015 3.1780014.92822265 3.16400146 2.66015625z"/>
      <path fill="rgb(254,254,254)" fill-rule="evenodd" d="M103.41390228.89287812l-2.4050064-.01708984L94.4048996 15.6956125l2.65799713.02001953 1.54199982-3.55371094 6.98200225.05175782 1.47100068 3.57617187 2.74199676.02001953L103.41390228.89287812zm-1.26600647 3.09082032l2.50700379 5.92382812-5.08200074-.0366211 2.57499695-5.88720702z"/>
      <path fill="rgb(254,254,254)" fill-rule="evenodd" d="M119.05690002 1.11651094l-6.62200164-.04980469-.10900116 14.76220703 6.83399963.05078125c3.28900147.02392578 5.47399902-1.37304687 5.49299622-4.00878906.01499939-2.04736328-1.18099976-3.04638672-2.90499878-3.64697266 1.09899902-.56298828 2.1190033-1.50634765 2.13200378-3.27734375.00700379-1.0336914-.32400513-1.8359375-.97200012-2.49609375-.83700562-.84863281-2.16400147-1.32177734-3.85099793-1.33398437zm-.57199096 6.2163086c1.66499328.0126953 2.78799438-.63427735 2.79798889-2.02539063.00900268-1.15966797-.91299439-1.8828125-2.58000183-1.89501954l-3.73199463-.02783203-.02899933 3.92285157 3.5430069.02539062zm.71199035 6.24804687c1.77200318.01416015 2.85400391-.67529297 2.86299134-2.04492188.01000976-1.24414062-.97698975-1.99023437-3.0209961-2.0053711l-4.11299896-.03076171-.02999878 4.04980469 4.3010025.03125z"/>
      <path fill="rgb(254,254,254)" fill-rule="evenodd" d="M134.74760437.97783906c-4.53401184-.03271484-7.76600647 3.42333985-7.79600525 7.57714844-.03100586 4.19824219 3.10800171 7.65722656 7.64099121 7.69091797 4.53300476.03417969 7.76400757-3.421875 7.79600525-7.5756836.03100586-4.19726562-3.1060028-7.65820312-7.64099121-7.6923828zm-.05900574 2.38378906c2.93099976.0209961 5.00100708 2.41894532 4.98001099 5.28710938-.02101135 2.91015625-2.08500671 5.2368164-5.0169983 5.21582031-2.93099975-.02294922-5-2.421875-4.97801208-5.28955078.02101136-2.90917969 2.08300782-5.23535156 5.0149994-5.2133789z"/>
      <path fill="rgb(254,254,254)" fill-rule="evenodd" d="M68.0924 22.9097l1.88.014-.025 3.326 3.623.026.024-3.326 1.883.015-.062 8.205-1.882-.014.025-3.31-3.622-.028-.025 3.312-1.88-.015.061-8.205z"/>
      <path fill="rgb(254,254,254)" fill-rule="evenodd" d="M82.79889679 30.21465547l-.00699616 1.00976562 1.86599732.01416016.03600311-4.86425781c.0169983-2.1928711-1.15499878-3.47607422-3.58100128-3.49267578-1.33599853-.01123047-2.22399902.26171875-3.1289978.65966796l.50099945 1.51123047c.75-.30517578 1.43499756-.50195312 2.35099792-.49511718 1.3050003.00927734 2.0169983.63720703 2.00900269 1.77001953l-.00099945.15527343c-.63600159-.20605468-1.27300263-.35107421-2.26700592-.35839843-1.91299439-.01464844-3.33300019.84814453-3.34700012 2.66601562-.01200104 1.67919922 1.34899902 2.57324219 2.90299987 2.58496094 1.2440033.0102539 2.102005-.49658203 2.66600037-1.16064453zm-1.81399536-2.76611328c.73299408.00634765 1.3999939.15136718 1.87999725.3413086l-.0039978.46679687c-.00700379 1.02490234-.9449997 1.71923828-2.18800354 1.70996093-.88700104-.00683593-1.58300018-.4477539-1.5779953-1.22607422.0059967-.82373046.70899963-1.30078125 1.88999939-1.29199218z"/>
      <path fill="rgb(254,254,254)" fill-rule="evenodd" d="M90.7643 30.2124l.896-1.238c.725.628 1.641.991 2.572.998.854.007 1.559-.44 1.564-1.123.004-.607-.584-1.03-1.655-1.038l-1.013-.007.01-1.353 1.013.008c.884.007 1.447-.44 1.452-1.062.004-.56-.568-.936-1.346-.942-.854-.007-1.711.28-2.337.821l-.831-1.186c.845-.726 2.014-1.169 3.351-1.159 1.803.013 3.055.956 3.047 2.231-.008.995-.588 1.55-1.305 1.856.883.317 1.485.944 1.478 2.001-.011 1.381-1.325 2.492-3.315 2.477-1.461-.011-2.623-.453-3.581-1.284"/>
      <path fill="rgb(254,254,254)" fill-rule="evenodd" d="M103.21749878 22.99639375c-2.34899902-.01708984-4.02599335 1.89892578-4.04399872 4.24511719-.0189972 2.56591797 1.8030014 4.30419922 4.18300629 4.32177734 1.5059967.01123047 2.58299255-.58789062 3.36799621-1.51269531l-1.09799957-.98828125c-.65699768.63232422-1.30999756.96923828-2.22800445.9633789-1.211998-.00927734-2.15599823-.76318359-2.3469925-2.10107421l6.02899933.0439453c.0169983-.09228515.03399658-.40185546.03499603-.52685546.01799775-2.36328125-1.28900146-4.42529297-3.89800262-4.4453125zm-.02899933 1.54003906c1.24500275.0102539 1.95200348.9609375 2.0680008 2.17626953l-4.211998-.03125c.18099976-1.27392578.9960022-2.15283203 2.1439972-2.14501953z"/>
      <path fill="rgb(254,254,254)" fill-rule="evenodd" d="M109.0377 23.2134l1.865.014 2.537 3.824 2.608-3.786 1.867.013-.062 8.206-1.897-.014.041-5.471-2.606 3.664-2.54-3.672-.04 5.441-1.834-.014.061-8.205z"/>
      <path fill="rgb(254,254,254)" fill-rule="evenodd" d="M119.0406 31.4781l.152-1.537c.124.031.418.064.543.065.949.007 1.605-.455 1.652-6.702l6.201.046-.062 8.206-1.88-.014.049-6.59-2.565-.02c-.044 5.953-1.167 6.677-2.986 6.663-.295-.002-.824-.069-1.104-.117"/>
      <path fill="rgb(254,254,254)" fill-rule="evenodd" d="M131.77360535 28.26104219l1.4159851.01123047c.28100586 2.00683593 1.79200745 3.52490234 3.9840088 3.54199218 2.48599242.01757813 4.13400268-1.91308593 4.14999389-4.24414062.01800537-2.36328125-1.58499146-4.28515625-4.05599976-4.30322266-2.19200134-.01708984-3.72499084 1.49511719-4.06700134 3.45117188l-1.41499329-.01123047.0249939-3.3256836-1.86499023-.01318359-.06100464 8.20605469 1.8650055.0131836.02400207-3.32617188zm5.45098877-3.36376953c1.41600036.0102539 2.2460022 1.21484375 2.2350006 2.65917968-.01100158 1.44580078-.78199767 2.63671875-2.2429962 2.62597657-1.41400147-.01123047-2.22900392-1.21289063-2.21800233-2.6591797.01100159-1.45996093.7649994-2.63671874 2.22599793-2.62597655z"/>
      <path fill="rgb(254,254,254)" fill-rule="evenodd" d="M70.13359833 39.67071016c-1.47299958-.01171875-2.55899811 1.18017578-2.57099915 2.56591796-.01000213 1.40722657 1.0490036 2.5991211 2.51200104 2.61132813 1.47299957.00976562 2.55999756-1.1850586 2.56900024-2.57128906.01200104-1.4038086-1.04599762-2.59570313-2.51000213-2.60595703zm-.02200318.4453125c1.1150055.00683593 2.02600098.96386718 2.01600647 2.15527343-.00600433 1.18164063-.93600464 2.1357422-2.03100586 2.12988282-1.14199829-.01025391-2.0249939-.96728516-2.01899719-2.15820313.00900269-1.1821289.91999817-2.13574219 2.03399658-2.12695312z"/>
      <path fill="rgb(254,254,254)" fill-rule="evenodd" d="M74.1158 39.814l.476.003-.016 2.201 3.287.025.016-2.202.475.003-.034 4.946-.475-.003.015-2.319-3.287-.024-.016 2.318-.475-.003.034-4.945z"/>
      <path fill="rgb(254,254,254)" fill-rule="evenodd" d="M79.2526 44.7993l.09-.436c.067.019.277.069.373.072.661.003 1.13-.287 1.18-4.31v-.263l3.364.029-.034 4.945-.475-.007.03-4.519-2.432-.015v.136c-.043 4.09-.645 4.454-1.559 4.448-.154-.003-.404-.04-.537-.08"/>
      <path fill="rgb(254,254,254)" fill-rule="evenodd" d="M87.79429626 41.79766328c-1.28099823-.0078125-2.17099761.56591797-2.17699432 1.59326172-.00500488 1.046875.87999725 1.578125 1.89899445 1.58398437.94100189.00878907 1.5530014-.45410156 1.89800262-.92626953l-.00499725.82519532.46499634.00195312.02200317-3.08398437c.0039978-.61083985-.16600037-1.06494141-.49300385-1.39794922-.35599517-.36083985-.88700103-.54980469-1.5569992-.55615235-.67900086-.0048828-1.21299744.1669922-1.7559967.41308594l.16999816.41699219c.45600128-.22802735.95300293-.38476563 1.55599976-.38183594 1.01499939.00585938 1.62000275.52490234 1.61399841 1.52490234l-.00299835.21289063c-.47299957-.12988281-.94400024-.21972656-1.63300324-.22607422zm1.63900757.6616211l-.00299835.56201171c-.00600433.90087891-.87400055 1.515625-1.88300323 1.50683594-.85199738-.00683594-1.41999817-.4272461-1.41400147-1.1430664.00600433-.70703126.58000183-1.16992188 1.6269989-1.16113282.70700074.00732422 1.26000214.12402344 1.67300415.23535156z"/>
      <path fill="rgb(254,254,254)" fill-rule="evenodd" d="M92.86250305 37.9456125l-.39800262.08300781c.11100006.6328125.61100006 1.12402344 1.30000305 1.12695313.68799591.00683593 1.19799805-.47607422 1.3180008-1.10791016l-.39500428-.0859375c-.12000275.43066406-.41100311.70410156-.91699982.69677734-.50299835-.00292968-.79299926-.27685546-.90799713-.71289062zm-.78099823 2l-.47399902-.00292969-.03500366 4.94482422.47599792.00439453 3.38600159-4.29101562-.03099823 4.31591797.47599792.00292968.03300476-4.94628906-.4750061-.00292969-3.38600159 4.29101563.03000641-4.31591797z"/>
      <path fill="rgb(254,254,254)" fill-rule="evenodd" d="M97.7067 39.9898l.476.003-.016 2.201 3.287.025.016-2.202.475.003-.034 4.946-.475-.003.015-2.319-3.287-.024-.016 2.318-.475-.003.034-4.945z"/>
      <path fill="rgb(254,254,254)" fill-rule="evenodd" d="M103.5006 41.8267l2.6.019-.003.543-2.6-.019.003-.543z"/>
      <path fill="rgb(254,254,254)" fill-rule="evenodd" d="M107.6871 40.064l4.111.03-.034 4.946-.474-.003.03-4.52-3.161-.024-.031 4.519-.475-.003.034-4.945z"/>
      <path fill="rgb(254,254,254)" fill-rule="evenodd" d="M114.06819916 40.109675l-.47600556-.00292969-.04699707 6.49804688.47599793.00292968.01800537-2.61816406c.40499878.62402344 1.03799438 1.19189453 2.02599335 1.19824219 1.19400024.00878906 2.4140091-.9633789 2.42299652-2.57128906.01200866-1.62695313-1.18899536-2.59716797-2.3829956-2.60595703-.97899629-.00488282-1.61399842.55908203-2.04399873 1.20507812l.00700379-1.10595703zm1.98700714.35595703c1.03699493.00488281 1.93299866.84814453 1.91999817 2.14794922-.00900269 1.3491211-.87900543 2.12304687-1.95300293 2.1171875-1.02799988-.00927734-2.01000214-.8671875-2.00099945-2.1381836.01300049-1.27880859 1.00700378-2.13671874 2.0340042-2.12695312z"/>
      <path fill="rgb(254,254,254)" fill-rule="evenodd" d="M122.19210815 40.05694062c-1.47200012-.01074218-2.55900573 1.18017579-2.57099914 2.56591797-.00900269 1.40820313 1.04899597 2.5991211 2.5119934 2.61132813 1.4730072.00976562 2.55999757-1.18408203 2.56900025-2.57128906.01200867-1.4038086-1.04600525-2.59570313-2.5099945-2.60595704zm-.02201843.44482422c1.11599732.00683594 2.02600098.9638672 2.0169983 2.15527344-.00698853 1.18261719-.93598939 2.13574219-2.0309906 2.12988281-1.14300538-.00927734-2.02600098-.96630859-2.02000428-2.15820312.0099945-1.1821289.91999817-2.13574219 2.03399658-2.12695313z"/>
      <path fill="rgb(254,254,254)" fill-rule="evenodd" d="M125.817 42.688c.012-1.405 1.089-2.597 2.543-2.587.93.009 1.488.456 1.948.944l-.321.328c-.423-.46-.904-.822-1.639-.828-1.001-.006-1.868.803-2.004 1.859l2.597.018-.004.426-2.605-.018c.078 1.135.932 1.994 2.019 2 .697.006 1.226-.358 1.646-.822l.348.303c-.491.59-1.114.976-2.025.967-1.426-.01-2.513-1.201-2.503-2.59"/>
      <path fill="rgb(254,254,254)" fill-rule="evenodd" d="M131.7037 40.2398l.476.006-.023 3.171 3.084-3.15.633.003-2.179 2.177 2.213 2.772-.601-.006-1.946-2.43-1.21 1.207-.006 1.201-.475-.006.034-4.945z"/>
      <path fill="rgb(254,254,254)" fill-rule="evenodd" d="M138.3219 40.7154l-1.853-.013.004-.425 4.18.03-.003.427-1.852-.013-.032 4.519-.475-.006.031-4.519z"/>
    </g>
  </g>
</svg>
