<svg xmlns="http://www.w3.org/2000/svg" xmlns:xlink="http://www.w3.org/1999/xlink" width="22" height="21" viewBox="0 0 22 21">
  <defs>
    <path id="path-1" fill-rule="evenodd" d="M0 0h22v20.9999877H0V0z"/>
    <mask id="mask-2" maskContentUnits="userSpaceOnUse" maskUnits="userSpaceOnUse">
      <rect width="22" height="21" x="0" y="0" fill="black"/>
      <use fill="white" xlink:href="#path-1"/>
    </mask>
  </defs>
  <g>
    <g>
      <use fill="none" xlink:href="#path-1"/>
      <g mask="url(#mask-2)">
        <path fill="rgb(255,255,255)" fill-rule="evenodd" d="M6.875-.0000123h8.25c3.79637146 0 6.875 2.93847656 6.875 6.5625v7.875c0 3.62402343-3.07862854 6.5625-6.875 6.5625h-8.25c-3.79637146 0-6.875-2.93847657-6.875-6.5625v-7.875c0-3.62402344 3.07862854-6.5625 6.875-6.5625zm8.25 19.03125c2.65374756 0 4.8125-2.06054688 4.8125-4.59375v-7.875c0-2.53320313-2.15875244-4.59375-4.8125-4.59375h-8.25c-2.65374756 0-4.8125 2.06054687-4.8125 4.59375v7.875c0 2.53320312 2.15875244 4.59375 4.8125 4.59375h8.25z"/>
      </g>
    </g>
    <path fill="rgb(255,255,255)" fill-rule="evenodd" d="M6 10.9999877c0-2.76123047 2.46263123-5 5.5-5s5.5 2.23876953 5.5 5c0 2.76123046-2.46263123 5-5.5 5s-5.5-2.23876954-5.5-5zm2.0625 0c0 1.72265625 1.54275513 3.125 3.4375 3.125s3.4375-1.40234375 3.4375-3.125c0-1.72363282-1.54275513-3.125-3.4375-3.125s-3.4375 1.40136718-3.4375 3.125z"/>
    <path fill="rgb(255,255,255)" fill-rule="evenodd" d="M16.99997069 3.9999877c.55228212 0 1.00002931.44770168 1.00002931 1 0 .5522983-.4477472 1-1.00002931 1-.5522235 0-.99997069-.4477017-.99997069-1 0-.55229832.4477472-1 .99997069-1"/>
  </g>
</svg>
