<svg xmlns="http://www.w3.org/2000/svg" xmlns:xlink="http://www.w3.org/1999/xlink" width="32" height="31" viewBox="0 0 32 31">
  <defs>
    <path id="path-1" fill-rule="evenodd" d="M0 0h32v30.99998184H0V0z"/>
    <mask id="mask-2" maskContentUnits="userSpaceOnUse" maskUnits="userSpaceOnUse">
      <rect width="32" height="31" x="0" y="0" fill="black"/>
      <use fill="white" xlink:href="#path-1"/>
    </mask>
  </defs>
  <g>
    <g>
      <use fill="none" xlink:href="#path-1"/>
      <g mask="url(#mask-2)">
        <path fill="rgb(151,187,56)" fill-rule="evenodd" d="M10-.00001816h12c5.52197266 0 10 4.33789062 10 9.6875v11.625c0 5.34960937-4.47802734 9.6875-10 9.6875H10c-5.52197266 0-10-4.33789063-10-9.6875v-11.625c0-5.34960938 4.47802734-9.6875 10-9.6875zm12 28.09375c3.85998535 0 7-3.0419922 7-6.78125v-11.625c0-3.73925782-3.14001465-6.78125-7-6.78125H10c-3.85998535 0-7 3.04199218-7 6.78125v11.625c0 3.7392578 3.14001465 6.78125 7 6.78125h12z"/>
      </g>
    </g>
    <path fill="rgb(151,187,56)" fill-rule="evenodd" d="M8 15.49998184c0-4.14208985 3.58203125-7.5 8-7.5s8 3.35791015 8 7.5c0 4.14160156-3.58203125 7.5-8 7.5s-8-3.35839844-8-7.5zm3 0c0 2.58398437 2.24401855 4.6875 5 4.6875s5-2.10351563 5-4.6875c0-2.58544922-2.24401855-4.6875-5-4.6875s-5 2.10205078-5 4.6875z"/>
    <path fill="rgb(151,187,56)" fill-rule="evenodd" d="M24.49995603 5.99998184c.82842318 0 1.50004397.67155253 1.50004397 1.5 0 .82844746-.67162079 1.5-1.50004397 1.5-.82833524 0-1.49995603-.67155254-1.49995603-1.5 0-.82844747.67162079-1.5 1.49995603-1.5"/>
  </g>
</svg>
