<svg xmlns="http://www.w3.org/2000/svg" xmlns:xlink="http://www.w3.org/1999/xlink" width="263" height="86" viewBox="0 0 263 86">
  <defs>
    <path id="path-12" fill-rule="evenodd" d="M0 12.47178525h24.132292v23.79474253H0V12.47178525z"/>
    <mask id="mask-13" maskContentUnits="userSpaceOnUse" maskUnits="userSpaceOnUse">
      <rect width="263" height="86" x="0" y="0" fill="black"/>
      <use fill="white" xlink:href="#path-12"/>
    </mask>
    <path id="path-16" fill-rule="evenodd" d="M0 86h263V0H0v86z"/>
    <mask id="mask-17" maskContentUnits="userSpaceOnUse" maskUnits="userSpaceOnUse">
      <rect width="263" height="86" x="0" y="0" fill="black"/>
      <use fill="white" xlink:href="#path-16"/>
    </mask>
  </defs>
  <g>
    <path fill="rgb(151,187,56)" fill-rule="evenodd" d="M77.62078857 13.15234375C77.62078857 5.90185547 83.53894043 0 90.80822754 0 98.08331299 0 104 5.90185547 104 13.15234375v21.69091797C104 42.09960937 98.08331299 48 90.80822754 48c-3.6760254 0-6.99932861-1.51660156-9.3939209-3.94824219-2.42791748 1.73535157-5.38116455 2.78027344-8.58843994 2.78027344C64.651062 46.83203125 58 40.20068359 58 32.04736328c0-8.1508789 6.65106201-14.78222656 14.8258667-14.78222656 1.68634033 0 3.28271484.34179687 4.79492187.86132812v-4.97412109zm22.88757325 21.69091797c0 5.33447265-4.35229493 9.67480469-9.70013428 9.67480469-2.66589356 0-5.0836792-1.08251954-6.83825684-2.82666016-.4165039-.41357422-.78656006-.86816406-1.12322998-1.3515625-.35552978-.51074219-.66174316-1.05517578-.91430664-1.62939453-.5209961-1.18554688-.81848144-2.49072266-.81848144-3.8671875V13.15234375c0-5.33300781 4.34790039-9.66894531 9.6942749-9.66894531 5.34783935 0 9.70013428 4.3359375 9.70013428 9.66894531v21.69091797zm-21.14605713 6.40576172c-1.85180664 1.3125-4.09979248 2.10107422-6.536438 2.10107422-6.24902343 0-11.33416747-5.07080079-11.33416747-11.30273438 0-6.22851562 5.08514404-11.29980469 11.33416748-11.29980469 1.71832275 0 3.33355713.41259766 4.79492187 1.10009766v12.99560547c0 2.33740234.66467286 4.50097656 1.74151612 6.40576172z"/>
    <path fill="rgb(151,187,56)" fill-rule="evenodd" d="M71.00083091 54C69.89405899 54 69 53.25685942 69 52.33829346V33.66308784C69 32.74452188 69.894059 32 71.00083091 32 72.10594101 32 73 32.74452188 73 33.66308784v18.67520562C73 53.25685942 72.105941 54 71.00083091 54"/>
    <path fill="rgb(151,187,56)" fill-rule="evenodd" d="M90 54c-1.10556941 0-2-.76671549-2-1.71442144V19.71442144C88 18.76671549 88.89443059 18 90 18s2 .76671549 2 1.71442144v32.57115712C92 53.23328451 91.10556941 54 90 54"/>
    <path fill="rgb(151,187,56)" fill-rule="evenodd" d="M102.2708941 57H3.7291059C2.7732826 57 2 56.10556941 2 55s.7732826-2 1.7291059-2h98.5417882C103.2267174 53 104 53.89443059 104 55s-.7732826 2-1.7291059 2"/>
    <path fill="rgb(151,187,56)" fill-rule="evenodd" d="M95.26215066 85c-.43767552 0-.87535104-.160937-1.2119134-.48565946C78.23902846 69.34211104 43.85044384 54.816478 2.81439138 56.5810882c-1.01257604-.0398782-1.77381366-.69644421-1.81281445-1.64070293-.04044526-.94425872.7020142-1.74324687 1.6625892-1.78739773 45.00546609-1.90703232 78.66459151 14.37181712 93.80989793 28.90599548.68901394.65799024.7020142 1.74182265.0332229 2.42260043C96.16928011 84.826245 95.71282643 85 95.26215065 85"/>
    <path fill="rgb(151,187,56)" fill-rule="evenodd" d="M78.28807112 86c-.42405423 0-.85380047-.15184428-1.18393665-.45967405C66.15272042 75.35433553 26.20624235 62.10523184 3.00563753 65.98554341c-.9107205.15460509-1.820018-.45415244-1.9808171-1.3555553-.15937608-.90692448.46532127-1.76553487 1.39880978-1.92152036 24.0643663-4.0059282 65.62879626 9.81328174 77.04837757 20.43133816.68304037.63636558.70580839 1.68547152.05407402 2.34806474C79.18740762 85.82883008 78.73916237 86 78.28807112 86"/>
    <path fill="rgb(151,187,56)" fill-rule="evenodd" d="M60.26469549 86c-.29694057 0-.5982055-.07626388-.87208273-.2452407-12.00014661-7.25703124-37.4173941-15.87335393-56.34519292-12.29642858-.93550693.1555185-1.84650905-.46655548-2.01948413-1.44751828-.17009217-.9809628.4540596-1.91556914 1.39533236-2.09501355 20.93286837-3.94628178 47.11841352 5.71380926 58.7149516 12.73307665.82883896.49795825 1.10848202 1.6015414.62415177 2.4583885C61.44092608 85.68148615 60.86145954 86 60.2646955 86"/>
    <path fill="rgb(151,187,56)" fill-rule="evenodd" d="M102.27463666 65H60.72536334C59.77160887 65 59 64.105941 59 63.00083091 59 61.89572081 59.77160887 61 60.72536334 61h41.54927332C103.22839113 61 104 61.89572081 104 63.00083091 104 64.10594101 103.22839113 65 102.27463666 65"/>
    <path fill="rgb(151,187,56)" fill-rule="evenodd" d="M101.3312063 73H79.6687937C78.74631007 73 78 72.10427919 78 70.99916909 78 69.89405899 78.74631007 69 79.6687937 69h21.6624126C102.25368993 69 103 69.894059 103 70.99916909 103 72.10427919 102.25368993 73 101.3312063 73"/>
    <path fill="rgb(151,187,56)" fill-rule="evenodd" d="M37.00083091 56C35.89572081 56 35 55.24157375 35 54.3041138V24.6958862C35 23.75842625 35.89572081 23 37.00083091 23 38.10594101 23 39 23.75842625 39 24.6958862v29.6082276C39 55.24157375 38.105941 56 37.00083091 56"/>
    <path fill="rgb(151,187,56)" fill-rule="evenodd" d="M9 56c-1.10556941 0-2-.75842625-2-1.6958862V24.6958862C7 23.75842625 7.89443059 23 9 23s2 .75842625 2 1.6958862v29.6082276C11 55.24157375 10.10556941 56 9 56"/>
    <g>
      <use fill="none" xlink:href="#path-12"/>
      <g mask="url(#mask-13)">
        <path fill="rgb(151,187,56)" fill-rule="evenodd" d="M1.67152778 36.26652778c-.28055556 0-.56111111-.06944445-.82222222-.21527778-.80277778-.45416667-1.0875-1.47222222-.63333334-2.27916667l7.37777778-13.075c.15277778-.27083333.37777778-.49166666.64722222-.64305555l13.4138889-7.3763889c.80833332-.44166666 1.81944444-.15 2.26944444.65833334.44583333.80972222.15138888 1.8263889-.65833334 2.27222222L10.26875 22.75402778 3.12847222 35.41791667c-.30833333.54166666-.875.8486111-1.45694444.8486111"/>
      </g>
    </g>
    <path fill="rgb(151,187,56)" fill-rule="evenodd" d="M44.33736297 36c-.5787472 0-1.14230055-.3095922-1.44755861-.85593137l-7.10242978-12.77312974-12.92581443-7.2074745c-.80527354-.44967917-1.09810028-1.47511577-.6547164-2.2918228.44752767-.81530615 1.44893988-1.10948878 2.25697594-.66401222l13.3401919 7.44001886c.2679641.1526948.49172792.37543308.64366633.64860266l7.33724367 13.18778717c.45167144.81390528.1685135 1.84074275-.62985375 2.29882714-.25967655.14709132-.5386907.2171348-.81770487.2171348"/>
    <use fill="none" xlink:href="#path-16"/>
    <g mask="url(#mask-17)">
      <path fill="rgb(151,187,56)" fill-rule="evenodd" d="M17.70617676 55h9.58618164C28.23553467 55 29 54.21777344 29 53.25048828V36.74951172C29 35.78222656 28.23553467 35 27.2923584 35h-9.58618164C16.76306152 35 16 35.78222656 16 36.74951172v16.50097656C16 54.21777344 16.76306152 55 17.70617676 55zm7.88000488-3.5h-6.17236328V38.50048828h6.17236328V51.5z"/>
      <path fill="rgb(151,187,56)" fill-rule="evenodd" d="M20 30h4v-8h-4v8z"/>
      <path fill="rgb(252,216,92)" fill-rule="evenodd" d="M42 11.00097656C42 15.41113281 45.58856201 19 49.99847412 19 54.411438 19 58 15.41113281 58 11.00097656 58 6.58740234 54.41143799 3 49.99847412 3 45.58856202 3 42 6.58740234 42 11.00097656zm3.62774658-.00048828c0-2.4116211 1.96234131-4.37402344 4.37078858-4.37402344 2.41296386 0 4.37371826 1.96240235 4.37371826 4.37402344 0 2.4086914-1.9607544 4.37109375-4.37371826 4.37109375-2.40844727 0-4.37078858-1.96240234-4.37078858-4.37109375z"/>
      <path fill="rgb(151,187,56)" fill-rule="evenodd" d="M29.29723992 4H2.70276008C1.76150035 4 1 3.10556941 1 2s.76150035-2 1.70276008-2h26.59447984C30.23849965 0 31 .89443059 31 2s-.76150035 2-1.70276008 2"/>
      <path fill="rgb(151,187,56)" fill-rule="evenodd" d="M18.27611434 11H2.72388566C1.77094804 11 1 10.10556941 1 9s.77094804-2 1.72388566-2h15.55222868C19.22905196 7 20 7.89443059 20 9s-.77094804 2-1.72388566 2"/>
      <path fill="rgb(48,48,48)" fill-rule="evenodd" d="M124.19832492 1L146 1.1610338 145.80167508 28l-4.69509622-.03390185.16597405-22.58428377-12.40866953-.0932301-.1673806 22.58428377L124 27.83755363 124.19832492 1z"/>
      <path fill="rgb(48,48,48)" fill-rule="evenodd" d="M164.34307861 2.07958984L153.2095337 2 153 28.96435547 157.96130371 29l.0668335-8.66992188 5.60620117.04150391c6.21087646.04394531 11.31781006-3.07861328 11.36535644-9.12548828.04302979-5.5078125-4.08166503-9.1196289-10.6566162-9.1665039zM169.95812988 11.25c-.02227783 2.8852539-2.37585449 4.875-6.1262207 4.84667969l-5.77105713-.04003906.07580566-9.70556641 5.77105713.03955078c3.70874024.02734375 6.0756836 1.69628906 6.05041504 4.859375z"/>
      <path fill="rgb(48,48,48)" fill-rule="evenodd" d="M190.38397217 2.03222656L186.01312256 2 174 28.79345703l4.83435059.0366211 2.80511474-6.42578126 12.69708252.09375 2.6793213 6.46533204L202 29 190.38397217 2.03222656zm-2.30200196 5.58886719l4.56018067 10.70996094-9.24194336-.06884766 4.6817627-10.64111328z"/>
      <path fill="rgb(48,48,48)" fill-rule="evenodd" d="M220.01428223 2.08935547L208.1954956 2 208 28.90722656l12.19726563.09228516c5.87121582.04394531 9.76916503-2.5024414 9.80249023-7.30761719.02770996-3.72998047-2.10498047-5.55126953-5.18347168-6.64892578 1.9621582-1.02392578 3.78283691-2.74316406 3.80505371-5.97070313.01391602-1.88476562-.57824707-3.34765624-1.73474121-4.55029296-1.4934082-1.54882813-3.86193848-2.40869141-6.87231445-2.4326172zm-1.02062989 11.33203125c2.9716797.02294922 4.9753418-1.15673828 4.9934082-3.69189453.0152588-2.11425782-1.62939452-3.43115235-4.60656738-3.45507813l-6.65881347-.04980468-.05273438 7.14892578 6.32470703.04785156zm1.2701416 11.38867187c3.16308594.02441407 5.0933838-1.23193359 5.11132813-3.72851562.01525879-2.26757813-1.7458496-3.62695313-5.39416504-3.65527344l-7.33972168-.05517578-.05407715 7.38134766 7.67663575.05761718z"/>
      <path fill="rgb(48,48,48)" fill-rule="evenodd" d="M249.13952637 2.00048828c-8.22302246-.06152344-14.08410645 6.27636719-14.13916016 13.89501953-.05627441 7.69824219 5.63562012 14.0415039 13.85876465 14.1040039 8.22302246.06152345 14.08410644-6.27636718 14.14050293-13.89501952.05627441-7.69384766-5.6328125-14.0415039-13.86010742-14.1040039zm-.10717774 4.37158203c5.31713867.04101563 9.07287598 4.43652344 9.03479004 9.69580078-.0394287 5.33740235-3.78381347 9.6044922-9.10095215 9.56445313-5.31713867-.03955078-9.07006836-4.43945313-9.03051757-9.69970703.0394287-5.3359375 3.77819824-9.60058594 9.09667968-9.56054688z"/>
      <path fill="rgb(48,48,48)" fill-rule="evenodd" d="M126.11396368 42l3.53579629.02859293-.04675433 6.44093303 6.8115216.05267118.04529326-6.44243792L140 42.10534236 139.88603632 58l-3.5401795-.02708804.04675433-6.4123401-6.8115216-.05267118-.04529327 6.413845L126 57.89465763 126.11396368 42z"/>
      <path fill="rgb(48,48,48)" fill-rule="evenodd" d="M153.4440918 55.81201172l-.01312256 1.90234375 3.50170898.02636719.0670166-9.16064454c.03057862-4.1328125-2.16687011-6.54589843-6.71636962-6.57958984-2.50787354-.01904297-4.17053223.49316406-5.86968995 1.24267578l.93994141 2.84765625c1.40618897-.57666015 2.69146729-.94677734 4.4095459-.93359375 2.44812012.01904297 3.78442383 1.19970703 3.76983642 3.3334961l-.00292968.29248046c-1.19348145-.3876953-2.38690186-.6611328-4.25360108-.6743164-3.58770752-.02636719-6.25006103 1.59472656-6.27624511 5.02050781C142.97686768 56.2919922 145.52844238 57.9794922 148.44287109 58c2.33447266.01708984 3.9432373-.93554688 5.0012207-2.18798828zm-3.40118409-5.2084961c1.3727417.00878907 2.62445069.2841797 3.52648926.64111329l-.00726318.87939453c-.0145874 1.93017578-1.77490234 3.23730468-4.10357666 3.2211914-1.66558838-.01171875-2.9697876-.84277343-2.95959473-2.30810546.01165772-1.5522461 1.33044434-2.44970704 3.54394531-2.43359375z"/>
      <path fill="rgb(48,48,48)" fill-rule="evenodd" d="M167 55.60047688l1.69015754-2.31216412c1.3679438 1.17277376 3.09325193 1.85350507 4.84931683 1.8651167 1.6096041.01161161 2.93800349-.82152223 2.94825574-2.09880058.00732304-1.13358454-1.10138515-1.9231748-3.12107948-1.93914078l-1.90838412-.01451453.0190399-2.52552766 1.90691952.01451453c1.66965303.01306307 2.73002916-.82152222 2.73881681-1.98558726.00732304-1.04359448-1.06916378-1.74754903-2.53670092-1.7577092-1.61106871-.01306307-3.22506664.52397442-4.40700523 1.53418548l-1.56420126-2.21781969c1.5920288-1.35420535 3.79626373-2.18298483 6.31392475-2.16266449 3.40081959.02322324 5.76323216 1.7852868 5.74419226 4.16712064-.01318147 1.85931088-1.1087082 2.89419664-2.45761209 3.466069 1.6637946.59364414 2.79886574 1.763515 2.78421966 3.73749064-.0190399 2.58213432-2.4956919 4.6562602-6.2480174 4.6286826-2.7549275-.0188689-4.94598094-.84764837-6.75184251-2.39925128"/>
      <path fill="rgb(48,48,48)" fill-rule="evenodd" d="M190.6364746 42c-4.4343872-.03320313-7.60388183 3.54541016-7.63616942 7.92871094-.03668213 4.7915039 3.40283203 8.0390625 7.89733886 8.07080078 2.84667969.02197265 4.87896729-1.09814453 6.3624878-2.82666016l-2.07189942-1.84423828c-1.24285888 1.18261719-2.4769287 1.81103516-4.21136474 1.7993164-2.28759766-.01708984-4.06896973-1.42626952-4.43139649-3.92382812l11.3881836.08154297c.03082275-.17138672.06457519-.75146484.06604003-.98535156.0322876-4.41113281-2.4343872-8.26367188-7.36322021-8.30029297zm-.05432128 2.87597656c2.34924316.01757813 3.6875 1.79638672 3.90466309 4.06445313l-7.953125-.05810547c.34191894-2.37939453 1.8796997-4.02197266 4.04846191-4.00634766z"/>
      <path fill="rgb(48,48,48)" fill-rule="evenodd" d="M201.11675215 43l3.54542293.02855533 4.82821873 7.39733233 4.95827176-7.32519256L218 43.1277475 217.88472572 59l-3.61044944-.0255495.07832739-10.58350554-4.95679388 7.08773248-4.8296966-7.1027616-.07684952 10.52338906L201 58.8737554 201.11675215 43z"/>
      <path fill="rgb(48,48,48)" fill-rule="evenodd" d="M220 58.7732421l.28218182-2.96694669c.23418182.06146782.78254545.12443486 1.01818182.12593407 1.776.01349294 3.0050909-.87704083 3.09236363-12.93222948L236 43.0899529l-.11345455 15.83470993-3.52-.02848509.09163637-12.7163425-4.8029091-.03748038c-.08290908 11.48698612-2.18472727 12.8842546-5.58981817 12.85726872-.55418182-.00449764-1.54181819-.13343014-2.06545455-.22638148"/>
      <path fill="rgb(48,48,48)" fill-rule="evenodd" d="M242.63244629 52.35058594l2.72253418.02001953c.53942871 3.75683594 3.44726562 6.60009765 7.66247558 6.62890625 4.78161622.0366211 7.94934083-3.57910156 7.9822998-7.94335938.03430177-4.42138671-3.04980468-8.02099609-7.80151366-8.05615234-4.21520996-.0288086-7.16479492 2.79980469-7.82226563 6.4633789l-2.72106933-.0205078.04638672-6.22607422-3.5847168-.02587891L239 58.5517578l3.5847168.02490235.04772949-6.22607422zm10.48217773-6.2993164c2.72241211.0205078 4.31982422 2.27636718 4.2989502 4.97851562-.0209961 2.70654296-1.50476074 4.9375-4.31542969 4.91552734-2.71801758-.02001953-4.28552246-2.27001953-4.26452637-4.9765625.02087403-2.73291016 1.47033692-4.9375 4.28100586-4.91748047z"/>
      <path fill="rgb(48,48,48)" fill-rule="evenodd" d="M129.0610962 73c-2.89898683-.02392578-5.03649903 2.27832031-5.06097413 4.9555664-.01837158 2.71972657 2.06567383 5.02050782 4.94476318 5.0444336 2.89746094.0180664 5.03656006-2.29052734 5.05493164-4.9663086.02441407-2.71484374-2.06109619-5.015625-4.9387207-5.0336914zm-.04431153.85986328c2.1940918.01074219 3.98608398 1.85986328 3.96777344 4.16015625-.01226807 2.28417969-1.84094239 4.1274414-3.99682618 4.11523438-2.24761963-.01806641-3.98608398-1.86669922-3.97387695-4.16748047.01837158-2.28564453 1.81188965-4.1274414 4.00292969-4.10791016z"/>
      <path fill="rgb(48,48,48)" fill-rule="evenodd" d="M137.06255683 73l.8903437.00562149-.0276414 3.98141786 6.15530097.04356652.0290962-3.98141786L145 73.05480949 144.93598836 82l-.8903437-.00562149.0290962-4.1922236-6.15530096-.0449719-.03055101 4.19362898L137 81.94519051 137.06255683 73z"/>
      <path fill="rgb(48,48,48)" fill-rule="evenodd" d="M147 81.85630016l.16061453-.78193018c.12150838.03345156.5.1212619.6717877.12683716 1.18715084.00696907 2.03072626-.51431772 2.11871509-7.73009769V73L156 73.05017734l-.06145251 8.87163213-.85335196-.01115052.05446927-8.10642773-4.37290502-.02927011v.24531143c-.07681565 7.33704187-1.15921788 7.99074108-2.80167598 7.97959056-.27793296-.00557526-.72625698-.07247837-.9650838-.14356294"/>
      <path fill="rgb(48,48,48)" fill-rule="evenodd" d="M162.07043457 76.81689453c-2.39685059-.0180664-4.05871582 1.09765625-4.0703125 3.09960938-.01159668 2.03710937 1.64587402 3.06982421 3.54882813 3.08349609 1.76062011.01660156 2.90380859-.88476563 3.55023193-1.80419922l-.01159668 1.60449219.87158203.00585937.04064941-6.00146484c.00585938-1.1899414-.31085205-2.07324219-.92382812-2.72167969-.6638794-.703125-1.6560669-1.07080078-2.90820313-1.08300781-1.26965332-.0102539-2.26904296.32519531-3.28448486.80761719l.31671143.81054687c.85559082-.44433593 1.7838745-.75146484 2.90966797-.74707031 1.89855957.01220703 3.0302124 1.02246094 3.01855468 2.96826172l-.00579834.41601562c-.8831787-.2524414-1.76641845-.42626953-3.05200195-.43847656zm3.06359863 1.28515625l-.00579834 1.09326172c-.01159668 1.75390625-1.6342163 2.95019531-3.52124023 2.93164063-1.59350586-.01171876-2.6553955-.82861329-2.64233399-2.22265626.01159668-1.37597656 1.0836792-2.27734374 3.04180909-2.25878906 1.3204956.01171875 2.35479736.24023438 3.12756347.45654297z"/>
      <path fill="rgb(48,48,48)" fill-rule="evenodd" d="M171.37878418 70l-.73468018.15478516c.2062378 1.17919921 1.1270752 2.09472656 2.3959961 2.10058593 1.2703247.01171875 2.20837402-.8852539 2.43035888-2.06542968l-.72894287-.16113282c-.22198486.80566407-.75622558 1.31103516-1.6899414 1.30078125-.92803955-.00585937-1.46228028-.51855468-1.67279053-1.32958984zm-1.43927002 3.72998047l-.87652588-.00585938L169 82.94384766l.87646484.00537109 6.24133301-7.99951172-.05584717 8.0444336L176.93841553 83 177 73.78076172l-.87646484-.00585938-6.24133301 8 .05731201-8.04492187z"/>
      <path fill="rgb(48,48,48)" fill-rule="evenodd" d="M181.06401164 74l.88888889.00562149-.0276414 3.98141786 6.15530097.04356652.0290962-3.98141786L189 74.05480949 188.93598836 83l-.88888889-.00562149.0276414-4.1922236-6.15530097-.0449719-.0290962 4.19362898L181 82.94519051 181.06401164 74z"/>
      <path fill="rgb(48,48,48)" fill-rule="evenodd" d="M191.00597193 77.1385L196 77.1615l-.00597193.7L191 77.8375l.00597193-.699z"/>
      <path fill="rgb(48,48,48)" fill-rule="evenodd" d="M198.06596702 74L206 74.05620609 205.93403298 83l-.91604198-.0056206.05847077-8.1737705-6.10044978-.04355972-.05997001 8.17236534L198 82.94379392 198.06596702 74z"/>
      <path fill="rgb(48,48,48)" fill-rule="evenodd" d="M210.94934082 74.1796875l-.86584473-.00585938L210 85.99414063 210.86444092 86l.03540039-4.76220703c.7357788 1.13330078 1.88885498 2.16796875 3.68707275 2.17773437 2.17468262.01660157 4.39587403-1.75097656 4.41296387-4.67578125.022583-2.95898437-2.16479492-4.72265625-4.33935547-4.73974609-1.78271484-.00976563-2.94006348 1.01757813-3.72247314 2.19042969l.0112915-2.01074219zm3.62060547.64550781c1.88879394.01123047 3.5201416 1.5444336 3.49609375 3.9086914-.01696777 2.453125-1.6015625 3.86181642-3.55834961 3.85205079-1.87182617-.01708984-3.66015625-1.57861328-3.64318848-3.89013672.02404785-2.32617187 1.83361817-3.88623047 3.70544434-3.87060547z"/>
      <path fill="rgb(48,48,48)" fill-rule="evenodd" d="M226.06115723 74c-2.89904785-.02246094-5.0366211 2.27832031-5.06103516 4.9555664-.01831055 2.72119141 2.06567383 5.02197266 4.94482422 5.0444336 2.89892578.0180664 5.03649902-2.28857422 5.05480957-4.9663086.02453613-2.7133789-2.05957031-5.015625-4.93859863-5.0336914zm-.04284668.85986328c2.19262695.01074219 3.98608398 1.859375 3.96618652 4.1616211-.01220703 2.28271484-1.83935547 4.12597656-3.99682617 4.11376953-2.2475586-.01806641-3.98608399-1.86523438-3.97375488-4.16748047.01977539-2.28417969 1.81176757-4.12597657 4.00439453-4.10791016z"/>
      <path fill="rgb(48,48,48)" fill-rule="evenodd" d="M232.00013867 78.99764153c.02470792-2.71487794 2.16503184-5.01554565 5.05431471-4.99753651 1.84846157.01800914 2.95722966.88244789 3.87142285 1.82492625l-.6377733.63182068c-.8400694-.88845094-1.79750146-1.58630514-3.25681323-1.59831123-1.98744364-.0120061-3.71236558 1.55028685-3.9826085 3.58982203l5.16086763.03601828-.00617698.82241742-5.17939858-.03451752c.15442453 2.19411363 1.8530943 3.85095456 4.01349341 3.86296065 1.385188.0120061 2.43527477-.69185115 3.27071145-1.58630513L241 82.13423352c-.975963 1.13907814-2.21290345 1.88345595-4.02430313 1.86544681-2.83369003-.01800914-4.99563339-2.31867685-4.9755582-5.0020388"/>
      <path fill="rgb(48,48,48)" fill-rule="evenodd" d="M243.06306141 74l.8975252.0112342-.0395967 5.73084725 5.82071495-5.69152754 1.19376718.0056171-4.1136572 3.93337494L251 83l-1.1351054-.0112342-3.67222732-4.39116867-2.28487626 2.18224372-.01173236 2.16960524L243 82.9382119 243.06306141 74z"/>
      <path fill="rgb(48,48,48)" fill-rule="evenodd" d="M255.54383358 74.7946149L252 74.77207264 252.00742942 74 260 74.05635567l-.00594354.77066374-3.5423477-.02113337L256.3922734 83l-.90787518-.01127113.05943536-8.19411397z"/>
    </g>
  </g>
</svg>
