<svg xmlns="http://www.w3.org/2000/svg" xmlns:xlink="http://www.w3.org/1999/xlink" width="28" height="30" viewBox="0 0 28 30">
  <defs>
    <path id="path-1" fill-rule="evenodd" d="M0 0h28v30H0V0z"/>
    <mask id="mask-2" maskContentUnits="userSpaceOnUse" maskUnits="userSpaceOnUse">
      <rect width="28" height="30" x="0" y="0" fill="black"/>
      <use fill="white" xlink:href="#path-1"/>
    </mask>
  </defs>
  <g>
    <use fill="none" xlink:href="#path-1"/>
    <g mask="url(#mask-2)">
      <path fill="rgb(151,187,56)" fill-rule="evenodd" d="M6.66418457 28.3984375v1.59082031c.08563232 0 .16815186-.00195312.24835205-.00390625.16955567-.00439453.32873535-.00830078.48565674.0078125.32745361.03564453.55963135-.07324219.79180908-.30517578 1.38586426-1.38232422 2.7869873-2.75146484 4.18804932-4.11914062.07403564-.07226563.19769287-.13183594.30108642-.13671875 1.859375-.09033203 3.72070313-.15966797 5.5800171-.25976563 1.1831665-.06347656 2.3460083-.26757812 3.47943115-.61425781 1.07971191-.33007813 2.0783081-.81201172 2.95629882-1.52148438 1.05737305-.85546875 1.71026612-1.97265625 2.20098877-3.20263672.62548828-1.56982421.91949463-3.20410156 1.0289917-4.87646484.08618164-1.32470703.10852051-2.64990234.01220703-3.97705078-.1074829-1.48779297-.3416748-2.95361328-.75732421-4.38916016-.43493653-1.50537109-1.22674561-2.79492187-2.46356202-3.8017578-1.05236816-.85644532-2.26489257-1.42138673-3.56561279-1.81396485-1.10913086-.3359375-2.2435913-.55908203-3.39526367-.68164063C16.6533203.17578125 15.54821777.06201171 14.4421997.01708984c-1.86138916-.0751953-3.70751953.0991211-5.53240967.4638672-1.62207031.32421874-3.1671753.85253905-4.5671997 1.73242187C2.4335327 3.41308594 1.18554686 5.08105469.70501708 7.2573242.32177734 8.99121095.1038208 10.7475586.02270508 12.52050782c-.08618164 1.90673828.06896972 3.79003907.53326416 5.64648438.32745361 1.30957031.80700683 2.55517578 1.65557861 3.63574219.74108887.94335937 1.63726807 1.69970703 2.78900147 2.13183593.48156738.18017578.96514892.35888672 1.44970703.53417969.15820312.05859375.22106933.1538086.21899414.32714844-.00579834.98339844-.00549317 1.96582031-.00518799 2.94921875l.00012207.65332031zm15.25183106-17.7836914c.05169677.33203124.05981445.67089843.09832763 1.11914062-.0567627.39941406-.11761474.90771484-.20275879 1.41015625-.0639038.37548828-.4116211.60644531-.76745605.54101562-.37921143-.06835937-.61132813-.40917968-.5302124-.79443359.26257324-1.23925781.17230224-2.44824219-.3690796-3.60107422-.7958374-1.69677734-2.13201904-2.78613281-3.979187-3.25488281-.87084962-.2211914-1.75494385-.2211914-2.6369629-.03466797-.40649414.08496094-.76947021-.1040039-.85662841-.45800781-.09429932-.37939453.13787841-.73535157.55859375-.8125 2.75250244-.50585938 5.09136962.23291015 6.97705078 2.26660156.95196533 1.02783203 1.49639892 2.25292969 1.70831298 3.61865234zm-3.63153077 10.91796874c.17034912-.02685547.34576416-.03466797.50793457-.08398437.90942383-.27783203 1.63830567-.79785156 2.14019776-1.5961914.12768554-.20410157.23822021-.42382813.3203125-.64892579.23321533-.64013672-.0253296-1.13867187-.53625489-1.52148437-.7543335-.56396485-1.52178955-1.11083985-2.29528808-1.64746094-.30822754-.21191406-.65795899-.35644531-1.0432129-.38623047-.7076416-.05371094-1.17706298.30517578-1.53289794.85546875-.3659668.56396484-.94384766.7578125-1.56738281.48046875-.49169922-.21777344-.98339844-.45117188-1.43756104-.734375-1.31695557-.81884766-2.27600098-1.94482422-2.86401367-3.3618164-.30212402-.7294922-.1470337-1.27197266.47039795-1.7685547.21490478-.17138671.43389892-.33886718.6315918-.5283203.33758544-.32177735.42376709-.7451172.22607421-1.16015626-.5859375-1.23242187-1.37774658-2.32226562-2.40979003-3.23730468-.30718995-.27246094-.68133545-.3984375-1.09594727-.28857422-.29504395.07763672-.59002686.17041015-.86785889.29345703-.93164062.41357422-1.7559204 1.42236328-1.55517578 2.63867187.04663086.28515625.16931153.56103516.26971436.83642578.62548828 1.73925782 1.52172851 3.33691407 2.6459961 4.81689454 1.02801513 1.3540039 2.21118163 2.56103515 3.54840087 3.62158203 1.58862305 1.25976562 3.33947754 2.25878906 5.20794678 3.06640625.39434814.171875.79174804.33398437 1.2368164.3540039zm1.73162842-9.84277343c-.02026367-.26269532-.02233887-.49951172-.05981445-.73144532-.27172852-1.6821289-1.15679932-2.96240234-2.67547608-3.80126953-1.05639648-.58251953-2.19689941-.75292968-3.3932495-.56152343-.3670044.05810546-.61431886.40820312-.54541016.75585937.07098388.3569336.41870117.5859375.7826538.52734375.78771973-.12597656 1.54608155-.0288086 2.27093506.2993164 1.62921143.73828126 2.50213623 2.42529297 2.22027588 4.0834961-.06182861.3647461.17944336.71289063.54742432.7734375.35791015.05810547.71069336-.18554688.76446533-.54541016.04052734-.2734375.06182861-.54980468.0881958-.79980468zm-5.28601074-3.21240235c-.41461182-.00195312-.72180176.26757813-.72888184.63720703-.00811767.37890625.29498291.65820313.71368409.66992188.14599609.00439453.29504394.02392578.43695068.05859375.899292.2241211 1.491333.96142578 1.5166626 1.88330078.01116943.38427734.30212402.66699219.682312.66308594.36395264-.00390625.65191651-.29833985.64984132-.67382813-.00097657-.14501953-.01922608-.28857422-.03649903-.4321289-.18347168-1.52832032-1.60687256-2.78222657-3.23406982-2.80615235z"/>
    </g>
  </g>
</svg>
