<svg xmlns="http://www.w3.org/2000/svg" xmlns:xlink="http://www.w3.org/1999/xlink" width="32" height="23" viewBox="0 0 32 23">
  <defs>
    <path id="path-1" fill-rule="evenodd" d="M0 0h32v23H0V0z"/>
    <mask id="mask-2" maskContentUnits="userSpaceOnUse" maskUnits="userSpaceOnUse">
      <rect width="32" height="23" x="0" y="0" fill="black"/>
      <use fill="white" xlink:href="#path-1"/>
    </mask>
  </defs>
  <g>
    <use fill="none" xlink:href="#path-1"/>
    <g mask="url(#mask-2)">
      <path fill="rgb(151,187,56)" fill-rule="evenodd" d="M11.66918945 22.86816406c1.5732422.07373047 3.14953614.09033203 4.7244873.13183594l.00048829-.06152344c.21679687 0 .43359375.0024414.65026855.00439453.47473145.00488282.94909668.00976563 1.4227295-.00878906 1.53442382-.06103515 3.06970214-.11914062 4.60095214-.22949219 1.58483887-.11376953 3.16564942-.28515625 4.7479248-.43603515 1.7833252-.1694336 3.21447755-1.40527344 3.61364747-3.12646485.32800293-1.41748047.47424316-2.86035156.52062988-4.31152343C31.99279785 13.51757813 32 12.2026367 32 10.88867188c0-2.296875-.05419922-4.58789063-.51159668-6.85351563C31.16223145 2.42041015 29.9342041 1.0625 28.33300782.78369141c-1.07421876-.1875-2.16870118-.26367188-3.25634766-.36376953C24.0546875.32568358 23.03063965.25195312 22.00646973.19384766c-1.305542-.07421875-2.61120606-.1538086-3.9182129-.17675782-1.53527831-.02734375-3.0718994-.02246093-4.60717773.0185547-1.53479004.04101562-3.06970215.1171875-4.60131836.2265625C7.31518554.37402343 5.75366211.53125 4.19360352.6953125 2.48596192.875 1.29772949 1.78515625.71618652 3.41699219.30383301 4.57128906.20629882 5.79736329.12646484 7.0126953.05517578 8.10791016.02502441 9.20654297.01416016 10.30419921l-.0020752.21679688c-.02404785 2.43554688-.04821777 4.8725586.31152344 7.29101563.10644531.71484375.19946289 1.43945312.52026367 2.10009765.6451416 1.32861329 1.68005371 2.14208985 3.147583 2.32470704 1.07788087.13476562 2.16015626.23730468 3.24291993.32470703 1.47668457.1196289 2.95507813.23730469 4.43481445.30664062zm.87976075-10.16992187l.00048828-1.21484375-.00012207-.91455078c-.00024414-1.02490235-.00048828-2.05029297.00195312-3.07519532.00036621-.14111328.01037598-.28662109.04333496-.42333984.11901856-.49707031.55041504-.7446289 1.03894043-.56201172.33654785.12646485.65332031.3125.97094727.48535156 2.2701416 1.2373047 4.5394287 2.4765625 6.80651855 3.71923829.1394043.07666015.27246094.17578124.3861084.28710937.30371094.2993164.31994629.68457031-.00488281.9609375-.26708985.22802734-.5847168.40234375-.89465332.5727539-2.3203125 1.2709961-4.64367676 2.53515626-6.9663086 3.8022461-.77099609.42089844-1.37817382.0625-1.38098144-.82177734-.0024414-.93896485-.00195313-1.87744141-.00134277-2.81591797z"/>
    </g>
  </g>
</svg>
