<svg xmlns="http://www.w3.org/2000/svg" xmlns:xlink="http://www.w3.org/1999/xlink" width="22" height="15" viewBox="0 0 22 15">
  <defs>
    <path id="path-1" fill-rule="evenodd" d="M0 0h22v15H0V0z"/>
    <mask id="mask-2" maskContentUnits="userSpaceOnUse" maskUnits="userSpaceOnUse">
      <rect width="22" height="15" x="0" y="0" fill="black"/>
      <use fill="white" xlink:href="#path-1"/>
    </mask>
  </defs>
  <g>
    <use fill="none" xlink:href="#path-1"/>
    <g mask="url(#mask-2)">
      <path fill="rgb(255,255,255)" fill-rule="evenodd" d="M8.02261353 14.9140625c1.08154296.04833984 2.16525268.05908203 3.24807739.0859375l.00030517-.04003906c.1486206 0 .29724121.00146484.4458313.00292968.32675171.0029297.65335083.00634766.97937012-.00585937 1.05490112-.03955078 2.11038208-.07763672 3.16311645-.14941406 1.08959961-.07470703 2.17642212-.18652344 3.26419068-.28466797 1.22610473-.11083984 2.20993042-.9165039 2.48443603-2.0390625.22549439-.9243164.32598877-1.86572266.35794068-2.81152344C21.99502563 8.81591797 22 7.95800781 22 7.10107422c0-1.4975586-.03723145-2.99169922-.3517456-4.46923828-.22424317-1.05322266-1.06851197-1.93896485-2.16931153-2.12060547-.73849487-.1225586-1.4909668-.171875-2.23876953-.23730469-.70254517-.06152344-1.40661621-.109375-2.11068726-.14746094C14.23184204.078125 13.33422852.0263672 12.43566895.01123047c-1.05551148-.01757813-2.11193848-.01464844-3.16741944.01171875-1.0552063.02685547-2.11038208.07666016-3.16342163.14794922-1.07565308.07324218-2.1491394.17578125-3.2217102.28271484-1.17398072.1171875-1.9909668.7109375-2.3907776 1.77490235C.2088623 2.9814453.1418457 3.78076171.08694459 4.57373047.03796387 5.28759766.0171814 6.00439453.00973511 6.72021484l-.00146485.14208985c-.01651 1.58789062-.03302002 3.17675781.2142334 4.75439453.07321167.46582031.13708496.93847656.3576355 1.36914062.44351196.86669922 1.15505981 1.39746094 2.16403198 1.51660157.74099732.08740234 1.4850769.15429687 2.22949219.21142578 1.01516724.078125 2.0315857.15527343 3.0489502.20019531zm.60479736-6.63476563l.0003357-.79003906-.00009156-.60205078c-.0001831-.6665039-.0003357-1.3334961.00134277-2 .00030518-.09179687.0071106-.18701172.02975464-.2758789.08187866-.32421876.37841797-.48583985.71432495-.36669922.23138428.08251953.4491272.20410156.66748047.31689453 1.5607605.80664062 3.12091065 1.6147461 4.6795044 2.42529297.0958252.05029296.1873474.11474609.26550293.1875.20874023.19482421.21990966.44628906-.00341797.62646484-.18362427.1484375-.40197754.26269531-.61505127.37353516-1.59518433.82910156-3.19256592 1.6533203-4.78930664 2.47949218-.53009034.27490235-.9475708.04101563-.94943238-.53564453-.0017395-.61328125-.00134277-1.22607422-.00094604-1.83886718z"/>
    </g>
  </g>
</svg>
