<svg xmlns="http://www.w3.org/2000/svg" xmlns:xlink="http://www.w3.org/1999/xlink" width="186" height="61" viewBox="0 0 186 61">
  <defs>
    <path id="path-12" fill-rule="evenodd" d="M0 8.33968538h17.37525024V25.4719H0V8.33968538z"/>
    <mask id="mask-13" maskContentUnits="userSpaceOnUse" maskUnits="userSpaceOnUse">
      <rect width="186" height="61" x="0" y="0" fill="black"/>
      <use fill="white" xlink:href="#path-12"/>
    </mask>
    <path id="path-16" fill-rule="evenodd" d="M0 61h186V0H0v61z"/>
    <mask id="mask-17" maskContentUnits="userSpaceOnUse" maskUnits="userSpaceOnUse">
      <rect width="186" height="61" x="0" y="0" fill="black"/>
      <use fill="white" xlink:href="#path-16"/>
    </mask>
  </defs>
  <g>
    <path fill="rgb(151,187,56)" fill-rule="evenodd" d="M54.64924622 9.31624603C54.64924622 4.18041993 58.76622009 0 63.82310486 0 68.8840332 0 73 4.18041992 73 9.31624603v15.3644333C73 29.82060241 68.8840332 34 63.82310486 34c-2.5572052 0-4.86909485-1.07432556-6.5348816-2.79651642-1.6889801 1.22911835-3.74343871 1.96924591-5.9745636 1.96924591C45.6268158 33.1727295 41 28.4756546 41 22.70015335c0-5.77344894 4.6268158-10.47052765 10.31365967-10.47052765 1.17311096 0 2.28361511.2419281 3.33558655.6099434V9.31624602zm15.92175293 15.3644333c0 3.77857207-3.02766419 6.85289-6.7478943 6.85289-1.85455321 0-3.53648376-.76678466-4.7570343-2.00204467-.28974914-.29318237-.54718017-.61507034-.78140258-.9574585-.24734497-.361866-.46035767-.74731064-.63601685-1.15428161-.36244201-.8395691-.56939697-1.7642212-.56939697-2.73910523V9.31624985c0-3.77754975 3.02464294-6.84879685 6.7438507-6.84879685 3.72023011 0 6.7478943 3.0712471 6.7478943 6.84879685v15.36442947zm-14.71028138 4.53715514c-1.288208.92977906-2.852005 1.48847199-4.5470581 1.48847199-4.34716797 0-7.88465882-3.59200669-7.88465882-8.0061531 0-4.41209794 3.53749085-8.0041008 7.88465882-8.0041008 1.1953125 0 2.31895447.29215621 3.33558655.77908706v9.20553589c0 1.65555954.46237182 3.18811035 1.21147155 4.53715896z"/>
    <path fill="rgb(151,187,56)" fill-rule="evenodd" d="M50.00041545 39C49.4470295 39 49 38.45953412 49 37.79148616V24.20951843C49 23.54147046 49.4470295 23 50.00041545 23 50.5529705 23 51 23.54147046 51 24.20951843v13.58196773C51 38.45953412 50.5529705 39 50.00041545 39"/>
    <path fill="rgb(151,187,56)" fill-rule="evenodd" d="M64 39c-.5527847 0-1-.55373897-1-1.23819326V14.23819326C63 13.55373896 63.4472153 13 64 13s1 .55373897 1 1.23819326v23.52361348C65 38.44626104 64.5527847 39 64 39"/>
    <path fill="rgb(151,187,56)" fill-rule="evenodd" d="M71.77945466 40H2.22054534C1.54584654 40 1 39.5527847 1 39s.54584654-1 1.22054534-1h69.55890932C72.45415346 38 73 38.4472153 73 39s-.54584654 1-1.22054534 1"/>
    <path fill="rgb(151,187,56)" fill-rule="evenodd" d="M67.76902338 61c-.31002016 0-.62004032-.11567347-.85843866-.34906774C55.7109785 49.74589231 31.35239772 39.30559357 2.2851939 40.57390715c-.71724136-.02866246-1.25645134-.50056928-1.2840769-1.17925524-.02864873-.67868595.49726006-1.25295869 1.17766734-1.28469212 31.87887182-1.37067948 55.72075233 10.32974356 66.4486777 20.77618425.48805155.47293049.49726007 1.25193503.0235329 1.74124406C68.41157341 60.8751136 68.08825205 61 67.76902337 61"/>
    <path fill="rgb(151,187,56)" fill-rule="evenodd" d="M55.7864808 61c-.30059541 0-.60522566-.11388321-.83924624-.34475554-7.76302768-7.63949282-36.07951846-17.57632058-52.52551681-14.6660869-.64557403.11595381-1.29013935-.34061433-1.40412351-1.01666648-.11297546-.68019336.32984798-1.32415115.99156135-1.44114026 17.05828497-3.00444616 46.52167836 7.3599613 54.61657144 15.32350362.48418052.47727418.50031987 1.26410363.03833096 1.76104855C56.42398515 60.87162256 56.10624168 61 55.78648079 61"/>
    <path fill="rgb(151,187,56)" fill-rule="evenodd" d="M42.77675256 61c-.20931876 0-.42168585-.05383332-.61474684-.17311108-8.45911975-5.12261029-26.37619584-11.20472042-39.71874255-8.67983194-.6594557.10977776-1.30163753-.32933328-1.42357079-1.02177761-.11990103-.69244434.3200748-1.35216645.98359495-1.4788331 14.75595639-2.78561066 33.21461937 4.03327713 41.38922818 8.98805411.58426352.35149994.78138896 1.13049982.43997584 1.73533305C43.6058987 60.7751667 43.1974223 61 42.77675255 61"/>
    <path fill="rgb(151,187,56)" fill-rule="evenodd" d="M71.77307496 46H42.22692504C41.54869964 46 41 45.5529705 41 45.00041545 41 44.44786041 41.54869964 44 42.22692504 44h29.54614992C72.45130036 44 73 44.4478604 73 45.00041545S72.45130036 46 71.77307496 46"/>
    <path fill="rgb(151,187,56)" fill-rule="evenodd" d="M71.79846854 52H56.20153146C55.53734325 52 55 51.5521396 55 50.99958455S55.53734325 50 56.20153146 50h15.59693708C72.46265675 50 73 50.4470295 73 50.99958455 73 51.55213959 72.46265675 52 71.79846854 52"/>
    <path fill="rgb(151,187,56)" fill-rule="evenodd" d="M27.00041545 40C26.44786041 40 26 39.44841728 26 38.76662822V17.23337178C26 16.55158272 26.4478604 16 27.00041545 16S28 16.55158272 28 17.23337178v21.53325644C28 39.44841728 27.5529705 40 27.00041545 40"/>
    <path fill="rgb(151,187,56)" fill-rule="evenodd" d="M6 40c-.5527847 0-1-.55158272-1-1.23337178V17.23337178C5 16.55158272 5.4472153 16 6 16s1 .55158272 1 1.23337178v21.53325644C7 39.44841728 6.5527847 40 6 40"/>
    <g>
      <use fill="none" xlink:href="#path-12"/>
      <g mask="url(#mask-13)">
        <path fill="rgb(151,187,56)" fill-rule="evenodd" d="M1.2035 25.4719c-.202 0-.404-.05-.592-.155-.578-.327-.783-1.06-.456-1.641l5.312-9.414c.11-.195.272-.354.466-.463l9.658-5.311c.582-.318 1.31-.108 1.634.474.321.583.109 1.315-.474 1.636l-9.358 5.145-5.141 9.118c-.222.39-.63.611-1.049.611"/>
      </g>
    </g>
    <path fill="rgb(151,187,56)" fill-rule="evenodd" d="M31.75302223 26c-.4340604 0-.85672541-.21929447-1.08566896-.60628472l-5.32682233-9.04763357-9.69436083-5.10529443c-.60395515-.31852275-.82357521-1.04487368-.4910373-1.62337448.33564575-.57750853 1.08670491-.7858879 1.69273196-.470342l10.00514392 5.27001337c.20097307.1081588.36879594.26593176.48274975.45942688l5.50293275 9.34134924c.33875358.57651624.12638513 1.30385945-.47239031 1.6283359C32.17154347 25.95038586 31.96228285 26 31.75302223 26"/>
    <use fill="none" xlink:href="#path-16"/>
    <g mask="url(#mask-17)">
      <path fill="rgb(151,187,56)" fill-rule="evenodd" d="M13.18121338 39h6.63658905C20.47076416 39 21 38.45233917 21 37.77539062V26.22460556C21 25.54766083 20.47076416 25 19.81780243 25h-6.63658905C12.52825928 25 12 25.54766083 12 26.22460556v11.55078506C12 38.45233917 12.52825928 39 13.18121338 39zm5.4553833-2.45022583h-4.27318573v-9.09954453h4.27318573v9.09954453z"/>
      <path fill="rgb(151,187,56)" fill-rule="evenodd" d="M15 21h3v-5h-3v5z"/>
      <path fill="rgb(252,216,92)" fill-rule="evenodd" d="M30 7.5005188C30 10.53264236 32.46713257 13 35.4989624 13 38.53286743 13 41 10.53264236 41 7.5005188 41 4.46632004 38.53286743 2 35.4989624 2 32.46713257 2 30 4.46632004 30 7.5005188zm2.49406433 0c0-1.65803146 1.34909058-3.00725556 3.00489807-3.00725556 1.65890503 0 3.00697327 1.3492241 3.00697327 3.00725556 0 1.65595627-1.34806824 3.00518036-3.00697327 3.00518036-1.6558075 0-3.00489807-1.3492241-3.00489807-3.00518036z"/>
      <path fill="rgb(151,187,56)" fill-rule="evenodd" d="M20.75130927 2H1.24869073C.55843359 2 0 1.5527847 0 1s.5584336-1 1.24869073-1h19.50261854C21.44156641 0 22 .4472153 22 1s-.5584336 1-1.24869073 1"/>
      <path fill="rgb(151,187,56)" fill-rule="evenodd" d="M12.82049928 7H2.17950072C1.52749076 7 1 6.5527847 1 6s.52749076-1 1.17950072-1h10.64099856C13.47250924 5 14 5.4472153 14 6s-.52749076 1-1.17950072 1"/>
      <path fill="rgb(48,48,48)" fill-rule="evenodd" d="M88.1442363 1L104 1.11332008 103.8557637 20l-3.41461544-.02385686.1207084-15.89264413-9.02448693-.06560637-.12173134 15.89264414L88 19.88568588 88.1442363 1z"/>
      <path fill="rgb(48,48,48)" fill-rule="evenodd" d="M116.73390198 1.05592728L109.14285278 1 109 19.9750328 112.38270569 20l.045578-6.10097122 3.8223877.02896118c4.23469543.03096008 7.7166748-2.16614914 7.74909973-6.42155075.02937317-3.87590027-2.78294373-6.41755676-7.26586914-6.45051193zm3.8284607 6.45350647c-.01519776 2.03032684-1.61991883 3.43048477-4.17695619 3.41051101l-3.9348297-.02796173.05166625-6.83001327 3.93482971.02796173c2.52867127.01897812 4.1425171 1.19343185 4.12528992 3.41950226z"/>
      <path fill="rgb(48,48,48)" fill-rule="evenodd" d="M135.70283508 1.0239296L132.58079528 1 124 20.84705734l3.45310974.02705002 2.0036316-4.75992203 9.06935119.06970978 1.9138031 4.78905487L144 21l-8.29716492-19.9760704zm-1.6442871 4.13983154l3.2572937 7.93320465-6.60139466-.05097961 3.34410095-7.88222504z"/>
      <path fill="rgb(48,48,48)" fill-rule="evenodd" d="M155.73762512 2.06278229L147.14219666 2 147 20.93482971l8.8707428.06477738c4.26997375.03089523 7.10484314-1.76093674 7.1290741-5.14229966.02017211-2.62496566-1.53091431-3.90655517-3.7697754-4.67889785 1.42703247-.72052002 2.75119019-1.93035508 2.76730347-4.20153809.01010132-1.32643509-.42053223-2.35589218-1.2616272-3.20198059-1.08615112-1.0902481-2.80865478-1.69516373-4.99809265-1.71210861zm-.74224853 7.97455215c2.1612091.01594544 3.6184845-.81419754 3.63157653-2.5980568.0111084-1.4878807-1.18496704-2.4146881-3.35021972-2.43162917l-4.8427887-.0348816-.03833008 5.03068543 4.59976197.03388214zm.92376709 8.01441956c2.30036926.01694107 3.70420837-.86701584 3.71733093-2.62396622.01107788-1.59551239-1.26971436-2.55221939-3.92306519-2.57214737l-5.33796692-.03886795-.03933715 5.19412232 5.58303833.04085922z"/>
      <path fill="rgb(48,48,48)" fill-rule="evenodd" d="M176.09967041 1.0003128c-5.8735962-.0437622-10.06011963 4.48309327-10.09936523 9.9248848-.0402832 5.49878311 4.02545166 10.02970505 9.89904785 10.0744896 5.87356567.0437622 10.0600891-4.48309327 10.1003418-9.9248848.0402832-5.49573136-4.0234375-10.02970886-9.90002442-10.0744896zm-.07650757 3.12239075c3.79794312.02951431 6.4805603 3.16920471 6.45339966 6.9256363-.02819824 3.81240844-2.70275879 6.86050414-6.50073242 6.83200836-3.79794312-.0284958-6.47854614-3.17123795-6.45037842-6.92869187.02819824-3.81138992 2.69873047-6.85744858 6.49771118-6.82895279z"/>
      <path fill="rgb(48,48,48)" fill-rule="evenodd" d="M89.08140263 30l2.52556877.01965764-.03339595 4.42814146 4.86537258.03621143.03235232-4.42917607L99 30.07242287 98.91859737 41l-2.52869965-.01862302.03339596-4.40848383-4.86537258-.03621143-.03235233 4.40951843L89 40.92757713 89.08140263 30z"/>
      <path fill="rgb(48,48,48)" fill-rule="evenodd" d="M108.46005249 39.4957428l-.0093689 1.3079071 2.50120545.01811218.04788208-6.29807281c.02186584-2.84117126-1.54777527-4.50019836-4.79737854-4.52333832-1.79133606-.01307678-2.9789734.3390503-4.19262695.85416413l.6713562 1.95783233c1.0044403-.39639282 1.92248535-.65093231 3.14967346-.64187622 1.74867248.01307678 2.70315552.8249817 2.69274902 2.29184723l-.00209045.20121765c-.85247803-.26660919-1.7049408-.45475006-3.03829956-.46379852-2.56263733-.01811218-4.4643097 1.09662628-4.48304749 3.45185852-.01664734 2.17414093 1.80592346 3.33415222 3.8876648 3.34823608 1.66748047.01207733 2.81660461-.6428833 3.57228088-1.50408935zm-2.42939758-3.5806427c.98049926.00603485 1.87460327.1951828 2.51890564.4406662l-.00520325.6046524c-.0104065 1.32701874-1.26777649 2.22544861-2.9310913 2.21438599-1.1897278-.00804901-2.12130738-.57950592-2.11401368-1.58659363.00831604-1.06745148.95031738-1.68417358 2.53140259-1.67311096z"/>
      <path fill="rgb(48,48,48)" fill-rule="evenodd" d="M119 39.35032785l1.17010907-1.58961283c.94703801.80628196 2.1414821 1.27428474 3.35721934 1.28226773 1.1143413.00798299 2.03400241-.56479653 2.04110013-1.4429254.0050698-.77933937-.76249742-1.32218267-2.16074733-1.33315928l-1.321189-.00997874.01318146-1.73630026 1.32017505.00997873c1.15591364.00898087 1.8900202-.56479652 1.89610395-1.36509124.0050698-.7174712-.74019031-1.20143996-1.75617756-1.20842507-1.11535527-.00898087-2.23273845.36023241-3.05100363 1.05475252l-1.08290856-1.52475104c1.10217379-.93101618 2.62818258-1.50080207 4.37117867-1.48683184 2.35441356.01596598 3.98992996 1.22738467 3.9767485 2.86489544-.00912564 1.27827623-.76756722 1.98976019-1.70142376 2.38292243 1.1518578.40813035 1.93767628 1.21241657 1.92753668 2.56952482-.01318147 1.77521734-1.7277867 3.20117889-4.3255505 3.18221928-1.9072575-.01297235-3.42414066-.58275825-4.67435251-1.64948525"/>
      <path fill="rgb(48,48,48)" fill-rule="evenodd" d="M135.0909729 30.00016022c-2.95625305-.0229454-5.06925964 2.43715667-5.09077454 5.45092773-.02445983 3.29410553 2.26853943 5.52674866 5.26489258 5.54869843 1.89779663.01496124 3.25267029-.755188 4.2416687-1.94334412l-1.38128662-1.2679596c-.8285675.81304932-1.65127563 1.24501801-2.80755615 1.23703766-1.52507019-.01197052-2.71266174-.98065185-2.95428467-2.69753265l7.59213257.05586243c.02055359-.11771393.04304504-.51675415.0440216-.6773758.02153016-3.03272247-1.62289428-5.6813736-4.90881347-5.70631408zm-.03619385 1.97725677c1.56616211.01197052 2.45832825 1.23503876 2.60310364 2.7943039l-5.30207825-.03990174c.2279358-1.63607788 1.25312806-2.76537323 2.69897461-2.75440216z"/>
      <path fill="rgb(48,48,48)" fill-rule="evenodd" d="M142.08241328 30l2.50265149.01963179 3.40815439 5.08566597 3.49995653-5.03606988L154 30.0878264 153.91862992 41l-2.54855255-.01756528.05528993-7.27616006-3.49891333 4.87281608-3.4091976-4.8831486-.05424672 7.23482998L142 40.91320684 142.08241328 30z"/>
      <path fill="rgb(48,48,48)" fill-rule="evenodd" d="M156 40.84410395l.194-2.03977585c.161.04225912.538.08554896.7.08657967 1.221.0092764 2.066-.60296558 2.126-8.89090777l7.98.06184262-.078 10.88636307-2.42-.0195835.063-8.74248547-3.302-.02576776c-.057 7.89730296-1.502 8.85792504-3.843 8.83937225-.381-.00309213-1.06-.09173322-1.42-.15563726"/>
      <path fill="rgb(48,48,48)" fill-rule="evenodd" d="M172.47671509 37.42836761l1.85623169.01399994c.36779785 2.58268738 2.35040283 4.53744507 5.22442627 4.55744934 3.26016235.0249939 5.42001342-2.46070098 5.44244384-5.46134185.02340699-3.03962708-2.07937622-5.514328-5.31918335-5.53832245-2.87402343-.01999665-4.88513183 1.92476654-5.33340454 4.44345856l-1.85525512-.01399994.03158569-4.28047944-2.4440918-.01799774L170 41.69184875l2.4440918.0169983.03262329-4.28047944zm7.1468811-4.33046722c1.8562622.01399231 2.94534302 1.56480408 2.93109131 3.4225769-.0142517 1.86077881-1.02593994 3.39459229-2.94229126 3.3795929-1.85321045-.01399994-2.92193603-1.5608139-2.9076538-3.42158508.0142517-1.87876892 1.00250243-3.39458466 2.91885375-3.38058472z"/>
      <path fill="rgb(48,48,48)" fill-rule="evenodd" d="M91.54278564 52.0001297c-2.02929687-.01680756-3.52557373 1.5947342-3.54269409 3.46891022-.0128479 1.90358734 1.44596863 3.51407623 3.46134949 3.53088379 2.0282135.01261139 3.52555847-1.60313416 3.53840637-3.47625733.01713562-1.90044403-1.44276428-3.51093292-3.45706177-3.52353668zm-.03103637.60196686c1.53587341.00735473 2.79026794 1.30162811 2.7774353 2.912117-.00857544 1.59893036-1.28865051 2.88900757-2.79777527 2.88059998-1.57333374-.01260376-2.79026794-1.30687714-2.78170776-2.91736603.0128479-1.59998322 1.26831054-2.88900757 2.80204773-2.87535095z"/>
      <path fill="rgb(48,48,48)" fill-rule="evenodd" d="M97.04691762 52l.66775778.00437227-.02073105 3.09665834 4.61647573.03388507.02182215-3.09665834L103 52.0426296 102.95199127 59l-.66775777-.00437227.02182215-3.26061836-4.61647573-.03497814-.02291325 3.26171143L97 58.9573704 97.04691762 52z"/>
      <path fill="rgb(48,48,48)" fill-rule="evenodd" d="M103 58.88823346l.1249224-.60816792c.09450653.02601788.3888889.09431481.52250156.09865112.92333954.0054204 1.57945376-.40002489 1.64788951-6.0122982V52L110 52.03902682l-.0477964 6.90015832-.66371819-.00867263.042365-6.30499934-3.40114836-.02276564v.19079778c-.0597455 5.70658812-.9016139 6.21502084-2.17908132 6.20634821-.21617008-.0043363-.56486654-.05637207-.75062073-.11166006"/>
      <path fill="rgb(48,48,48)" fill-rule="evenodd" d="M115.05284119 54.67175293c-1.79768372-.01270294-3.04408265.76844788-3.05279541 2.16986847-.00871277 1.42575836 1.23440551 2.1486969 2.6616516 2.15821838 1.32048035.01164246 2.17791749-.61920166 2.66275025-1.26275634l-.00871277 1.12303924.65370179.00423431.03050231-4.20107269c.00436402-.83301544-.2331543-1.45116424-.69291687-1.90525055-.49790954-.4921875-1.2420349-.74939728-2.18119812-.7578659-.95222473-.00740815-1.70179748.2275772-2.46336364.5652237l.2375183.56734466c.64170838-.31119538 1.3379059-.52606202 2.18226624-.52288819 1.42398072.00846863 2.27270508.7155304 2.26399231 2.07778168l-.00434875.29107666c-.66242981-.17676544-1.32484436-.2984848-2.28904724-.30695343zm2.29776.89969635l-.004364.76527405c-.00871278 1.22782898-1.22569276 2.06507873-2.64094544 2.0523758-1.19519043-.00846864-1.99162293-.58003999-1.98181153-1.55595399.00871277-.96321106.81277466-1.59405517 2.28141785-1.58135223.99035645.00846863 1.76608276.16829681 2.34570313.31965637z"/>
      <path fill="rgb(48,48,48)" fill-rule="evenodd" d="M121.7841034 50l-.5510254.1072998c.15467835.81626893.84532166 1.45002747 1.79699707 1.45404053.95272827.0080185 1.65628052-.61270141 1.82276917-1.42997741l-.54672241-.11130524c-.16648865.55754852-.56713868.90751648-1.26745606.90049743-.69602966-.00400543-1.09667969-.35899353-1.25456238-.92055511zm-1.07948304 2.5821762l-.65736389-.00401305L120 58.96089172l.6573639.00401307 4.68098449-5.53838349-.04190064 5.56946564L125.95381165 59 126 52.61727142l-.6573639-.00401306-4.68098449 5.53838349.04296875-5.56946564z"/>
      <path fill="rgb(48,48,48)" fill-rule="evenodd" d="M128.04800873 52l.66666667.00437227-.02073105 3.09665834 4.61647573.03388507.02182215-3.09665834L134 52.0426296 133.95199127 59l-.66666667-.00437227.02073105-3.26061836-4.61647573-.03497814-.02182215 3.26171143L128 58.9573704 128.04800873 52z"/>
      <path fill="rgb(48,48,48)" fill-rule="evenodd" d="M136.00358316 55.1385L139 55.1615l-.00358316.7L136 55.8375l.00358316-.699z"/>
      <path fill="rgb(48,48,48)" fill-rule="evenodd" d="M141.04122939 52L146 52.04371585 145.95877061 59l-.57252623-.00437158.03654423-6.35737705-3.81278111-.03387979-.03748126 6.35628416L141 58.95628415 141.04122939 52z"/>
      <path fill="rgb(48,48,48)" fill-rule="evenodd" d="M149.63290405 52.13465118l-.57725525-.00424194L149 60.99575806 149.5763092 61l.0235901-3.57157898c.4904785.84997559 1.25920104 1.62576294 2.45805358 1.63317871 1.44973755.0127182 2.93061829-1.31311035 2.94192505-3.50692749.01509094-2.21925354-1.4431305-3.54190063-2.8928833-3.55461883-1.1884613-.00741578-1.96002197.76306915-2.48162842 1.64271545l.00753784-1.50811768zm2.4137268.48432923c1.25921632.00848388 2.346756 1.1583786 2.330719 2.93144989-.01132202 1.83983612-1.06773376 2.89647674-2.3722229 2.88905334-1.24789428-.0127182-2.44013977-1.18380737-2.42881775-2.9176712.016037-1.74445343 1.22242737-2.91448975 2.47032166-2.90283203z"/>
      <path fill="rgb(48,48,48)" fill-rule="evenodd" d="M159.54278564 52.00011444c-2.02929687-.0157547-3.52557373 1.5947342-3.54269409 3.46891785-.0128479 1.9046402 1.44598389 3.51513672 3.46133423 3.53089142 2.02929688.01261139 3.52557373-1.6020813 3.53842163-3.47626496.01712036-1.89939117-1.4416809-3.51094055-3.45706177-3.5235443zm-.02996826.60196686c1.53482056.00735474 2.7902832 1.30162811 2.77636719 2.91317749-.00857544 1.59788513-1.28756714 2.88795471-2.79776 2.87955475-1.57336427-.0126114-2.79028321-1.30583191-2.7817383-2.91738129.01391602-1.59893036 1.26831056-2.88795471 2.80313111-2.87535095z"/>
      <path fill="rgb(48,48,48)" fill-rule="evenodd" d="M165.00009245 55.49834907c.01647195-1.90041456 1.44335456-3.51088195 3.36954314-3.49827556 1.2323077.0126064 1.97148644.61771353 2.58094856 1.27744838l-.4251822.44227447c-.56004627-.62191565-1.1983343-1.11041359-2.17120882-1.11881786-1.32496242-.00840426-2.47491039 1.0852008-2.65507233 2.51287542l3.44057842.0252128-.00411799.5756922-3.45293238-.02416227c.10294968 1.53587954 1.2353962 2.6956682 2.67566227 2.70407246.92345866.00840426 1.62351651-.4842958 2.1804743-1.1104136L171 57.69396347c-.650642.7973547-1.47526896 1.31841917-2.68286875 1.30581277-1.8891267-.0126064-3.33042226-1.6230738-3.3170388-3.50142716"/>
      <path fill="rgb(48,48,48)" fill-rule="evenodd" d="M172.04729606 52l.6731439.00873771-.02969752 4.45732564 4.3655362-4.42674364.8953254.00436885-3.0852429 3.05929162L178 59l-.85132906-.00873771-2.75417048-3.41535341-1.7136572 1.69730067-.00879926 1.68747074L172 58.9519426 172.04729606 52z"/>
      <path fill="rgb(48,48,48)" fill-rule="evenodd" d="M181.21489599 53.52974327L179 53.51471509 179.00464339 53 184 53.03757044l-.00371471.51377583-2.21396731-.01408891L181.74517088 59l-.567422-.00751409.0371471-5.46274264z"/>
    </g>
  </g>
</svg>
