<svg xmlns="http://www.w3.org/2000/svg" xmlns:xlink="http://www.w3.org/1999/xlink" width="135" height="135" viewBox="0 0 135 135">
  <defs>
    <path id="path-1" fill-rule="evenodd" d="M0 0h135v135H0V0z"/>
    <mask id="mask-2" maskContentUnits="userSpaceOnUse" maskUnits="userSpaceOnUse">
      <rect width="135" height="135" x="0" y="0" fill="black"/>
      <use fill="white" xlink:href="#path-1"/>
    </mask>
  </defs>
  <g>
    <use fill="none" xlink:href="#path-1"/>
    <g mask="url(#mask-2)">
      <path fill="rgb(254,254,254)" fill-rule="evenodd" d="M135 71.99023438v-8.96337891c-.26031494-1.94726563-.4724121-3.90478516-.79058838-5.84570313-3.00482178-18.32226562-11.98724365-33.04443359-26.84112549-44.12890625C98.305542 6.28710937 88.07299805 2.18310547 76.8795166.64404297 49.652771-3.10009766 23.18762207 9.7001953 9.22711182 33.4501953 4.31335449 41.8125 1.33099365 50.83691406.3540039 60.46533203c-3.1044922 30.6821289 14.46185302 58.94140625 42.7748413 70.00341797 6.03222657 2.35546875 12.28289795 3.82763672 18.76184083 4.2836914.38238525.0288086.75842285.1640625 1.13763427.2475586h8.9663086c1.89935302-.25732422 3.81152343-.46289063 5.7076416-.77441406 19.75805664-3.2524414 35.20648193-13.25048828 46.33886719-29.859375 5.6015625-8.35595703 8.91815185-17.62158203 10.35791015-27.5649414.23461914-1.60058595.4017334-3.20751954.60095215-4.81103517zm-84.36346436.51708984l-.0003662-5.08105469.0003662-5.0493164c.00061036-5.0810547.0012207-10.16064454-.00360107-15.24267579 0-1.5102539.33099365-2.8828125 1.54260254-3.89501953 1.55541992-1.3046875 3.3326416-1.34326172 5.3572998-.08691406 5.10021973 3.17529297 10.19396973 6.36669922 15.28771973 9.55175781 5.76550293 3.60595703 11.4666748 7.32421875 17.32208252 10.7758789 3.40979004 2.00830079 3.36480713 6.01611329-.0256958 8.08251954-10.86566162 6.6171875-21.6027832 13.44335938-32.39129639 20.18261719-2.19177246 1.36621093-3.84362793 1.38867187-5.47296142.09326172-1.28552246-1.02197266-1.61975098-2.4326172-1.61975098-3.98828125.00482178-5.11328125.00421143-10.22851563.00360107-15.34277344z"/>
    </g>
  </g>
</svg>
